<svg width="144" height="36" viewBox="0 0 144 36" fill="none" xmlns="http://www.w3.org/2000/svg">
<g clip-path="url(#clip0_3244_17229)">
<path fill-rule="evenodd" clip-rule="evenodd" d="M20.3406 23.5167C20.1238 23.7302 19.8954 23.9321 19.6617 24.1264L19.4565 24.3007C19.2291 24.4813 18.9923 24.6544 18.7522 24.8169C18.7074 24.8442 18.6652 24.8719 18.6238 24.899C18.596 24.9173 18.5685 24.9354 18.5408 24.9528L18.3018 25.1026L18.0606 25.2472C17.6539 25.4846 17.2321 25.6949 16.7981 25.8771C16.7303 25.9089 16.6585 25.9398 16.5866 25.9684C16.4396 26.0279 16.2894 26.0831 16.1372 26.1342C16.0751 26.1559 16.0123 26.1764 15.9497 26.1968L15.9496 26.1968C15.8992 26.2132 15.8487 26.2297 15.7988 26.2467C15.6866 26.285 15.5714 26.32 15.4561 26.3531C15.2721 26.405 15.0871 26.4528 14.8989 26.4964C14.6165 26.5633 14.332 26.6186 14.0444 26.66C13.9461 26.6748 13.852 26.6887 13.7537 26.7014C13.6552 26.7142 13.558 26.7258 13.4607 26.7343C13.2693 26.7535 13.0747 26.7694 12.8791 26.7801H12.8294C12.6443 26.7928 12.4572 26.7928 12.271 26.7928C12.0849 26.7928 11.8988 26.7886 11.7138 26.7801H11.6641C11.4684 26.7694 11.2739 26.7535 11.0825 26.7343C10.9852 26.7258 10.8868 26.7142 10.7895 26.7014C10.6923 26.6887 10.5971 26.6748 10.4987 26.66C10.2122 26.6186 9.92665 26.5644 9.6443 26.4964C9.45501 26.4528 9.27102 26.405 9.08702 26.3531C8.81102 26.2744 8.53713 26.1852 8.27065 26.0864C8.24199 26.076 8.21333 26.0659 8.18467 26.0558C8.10759 26.0285 8.0305 26.0013 7.9534 25.9695L7.51245 25.792V25.7772L7.6182 25.3311C7.87628 24.2907 8.47358 23.367 9.31491 22.7072C10.1562 22.0475 11.1932 21.6896 12.2605 21.6906C13.1898 21.6905 14.108 21.4879 14.9517 21.0968C14.9545 21.0957 14.9575 21.0957 14.9602 21.0968C15.0775 21.0425 15.1918 20.9863 15.3071 20.9247C15.5169 20.8129 15.7206 20.6898 15.9172 20.5561C16.0039 20.4997 16.0907 20.436 16.1731 20.3734L16.1832 20.3657C16.2626 20.3054 16.3444 20.2431 16.4206 20.18C16.4998 20.1141 16.5802 20.0462 16.6564 19.9728C16.7591 19.8809 16.8529 19.7864 16.9519 19.6866L16.952 19.6865L16.9947 19.6435C17.1067 19.5307 17.2126 19.4118 17.312 19.2877C17.5121 19.0432 17.6949 18.7848 17.8587 18.5144C17.875 18.4863 17.8917 18.458 17.9086 18.4295L17.9086 18.4294L17.9087 18.4292L17.9088 18.4291C17.9453 18.3673 17.9823 18.3048 18.0162 18.2424C18.0554 18.1724 18.0893 18.103 18.1236 18.0329L18.1236 18.0328C18.1356 18.0082 18.1477 17.9835 18.16 17.9587C18.2076 17.8632 18.2531 17.7644 18.2922 17.6667C18.661 16.7887 18.8353 15.8409 18.8032 14.8886C18.7712 13.9363 18.5335 13.0025 18.1068 12.1516C17.6799 11.3007 17.0741 10.5532 16.3312 9.96074C15.5884 9.36831 14.7263 8.94512 13.8045 8.72048C12.8828 8.49584 11.9235 8.47511 10.993 8.65971C10.0625 8.84432 9.18306 9.22987 8.41554 9.78966C7.64802 10.3495 7.01077 11.0701 6.54791 11.9018C6.08505 12.7334 5.80762 13.6562 5.73484 14.6062V14.7219L5.72427 14.7283L5.4377 14.8919C4.46664 15.4724 3.57296 16.1746 2.77817 16.9815C2.4567 17.3044 2.15109 17.6421 1.86874 17.9884L1.21312 18.7948L1.16976 18.8479L0.920201 17.7664C0.855696 17.4829 0.801764 17.1961 0.760523 16.906C0.74377 16.8059 0.73069 16.7058 0.71761 16.6057L0.70976 16.5459C0.70277 16.5189 0.699923 16.4909 0.701305 16.4631C0.688615 16.3568 0.678041 16.2506 0.668524 16.1443L0.655835 15.9872C0.654033 15.9618 0.65189 15.9365 0.649745 15.9111C0.644335 15.8472 0.638911 15.783 0.638911 15.7184C0.623049 15.5208 0.623047 15.32 0.623047 15.1171C0.623047 12.0172 1.84891 9.04417 4.03095 6.85217C6.21299 4.66017 9.17248 3.42871 12.2584 3.42871C15.3442 3.42871 18.3038 4.66017 20.4858 6.85217C22.6678 9.04417 23.8937 12.0172 23.8937 15.1171V15.4177C23.8937 15.447 23.8922 15.4736 23.8906 15.5008C23.889 15.5289 23.8874 15.5574 23.8874 15.5899C23.8874 15.622 23.8852 15.6539 23.8831 15.6854C23.881 15.7165 23.8789 15.7473 23.8789 15.7779C23.877 15.8518 23.8723 15.9115 23.8659 15.9944L23.8659 15.9945L23.8641 16.018C23.8567 16.1135 23.8482 16.2092 23.8376 16.3048C23.8339 16.3443 23.8292 16.3856 23.8246 16.4254C23.8213 16.454 23.818 16.4819 23.8154 16.5076C23.8091 16.5693 23.8028 16.6203 23.7943 16.6862L23.7918 16.7057L23.7917 16.7058L23.7917 16.7058L23.7917 16.7059C23.7841 16.7655 23.7762 16.8264 23.7657 16.8848C23.7604 16.8986 23.7582 16.9135 23.7593 16.9283C23.7496 16.9953 23.738 17.0609 23.7264 17.1263L23.7264 17.1263L23.7264 17.1264L23.7264 17.1264L23.7264 17.1265L23.7264 17.1265L23.7263 17.1268L23.716 17.1854C23.6663 17.4711 23.6029 17.757 23.532 18.0353L23.5206 18.0798L23.5205 18.0799L23.5205 18.0801L23.5205 18.0802L23.5205 18.0803L23.5204 18.0803L23.5204 18.0804L23.5204 18.0805L23.5204 18.0805C23.5002 18.1597 23.4802 18.2379 23.4579 18.3146C23.4083 18.4994 23.3491 18.6832 23.2867 18.8638C23.2779 18.8899 23.2695 18.9159 23.2611 18.9418C23.2401 19.0066 23.2193 19.071 23.1936 19.1347C23.1576 19.2239 23.1186 19.3238 23.0879 19.4024C23.0573 19.481 23.0255 19.5597 22.9927 19.6372L22.9727 19.686C22.7963 20.1106 22.5929 20.5233 22.3635 20.9215C22.3573 20.9283 22.3522 20.9362 22.3487 20.9448C22.3223 20.9937 22.2863 21.0575 22.2683 21.0872C22.2503 21.1169 22.2313 21.1478 22.2113 21.1764C22.0685 21.4112 21.9184 21.6407 21.7629 21.8648L21.5513 22.1548L21.4139 22.3312L21.3897 22.3611L21.3895 22.3612C21.341 22.421 21.2909 22.4827 21.2384 22.5436C21.2202 22.5651 21.2019 22.5871 21.1835 22.6092C21.1582 22.6398 21.1325 22.6706 21.1062 22.7008C21.0216 22.8039 20.9328 22.9037 20.8439 23.0015L20.8076 23.0409C20.769 23.0829 20.7336 23.1214 20.6832 23.1736L20.6387 23.2198C20.5883 23.2722 20.5383 23.3242 20.4876 23.3743L20.4709 23.3911L20.4709 23.3911C20.4284 23.4339 20.3845 23.4782 20.3406 23.5167ZM8.32353 21.2372C8.53333 21.0787 8.75186 20.9323 8.97811 20.7985C9.9828 20.2135 11.1246 19.908 12.2859 19.9136C13.3494 19.9114 14.3816 19.5519 15.2181 18.8922C16.0545 18.2324 16.6472 17.3105 16.9017 16.2731L17.017 15.811L16.5761 15.6357C13.8038 14.5341 10.7182 14.5341 7.94601 15.6357C7.23269 15.9195 6.54994 16.2755 5.90828 16.698C5.69679 16.8372 5.4853 16.988 5.2738 17.142C4.83495 17.4764 4.41879 17.8398 4.0281 18.2298C3.34485 18.9179 2.74854 19.6878 2.25261 20.5223C2.19869 20.6137 2.14687 20.7051 2.09611 20.7985C1.56308 21.7523 1.16785 22.7773 0.92232 23.843C0.722405 24.7122 0.621997 25.6014 0.623055 26.4934V28.6748C0.623055 29.351 0.890447 29.9995 1.3664 30.4777C1.84236 30.9558 2.48788 31.2244 3.16098 31.2244C3.83408 31.2244 4.4796 30.9558 4.95556 30.4777C5.43152 29.9995 5.6989 29.351 5.6989 28.6748V26.4934C5.69878 25.9562 5.76448 25.4211 5.89454 24.9C5.95186 24.668 6.02248 24.4396 6.10603 24.2159C6.54459 23.0294 7.31453 21.9952 8.32353 21.2372ZM23.348 22.7669L22.649 23.6242C22.3638 23.9755 22.0603 24.3113 21.7396 24.6302C20.9432 25.4327 20.0493 26.1311 19.079 26.7091L18.8126 26.8674V28.6748C18.8126 29.351 19.08 29.9995 19.5559 30.4777C20.0318 30.9558 20.6773 31.2244 21.3505 31.2244C22.0235 31.2244 22.6691 30.9558 23.145 30.4777C23.6209 29.9995 23.8883 29.351 23.8883 28.6748V26.4945C23.8892 25.6033 23.7892 24.7148 23.5901 23.8462L23.348 22.7669ZM58.9473 26.7458H55.0632L53.4125 21.9878H46.6639L45.0131 26.7458H41.1291L48.169 7.51963H51.9317L58.9473 26.7458ZM49.9653 12.399L47.8534 18.5407H52.223L50.111 12.399H49.9653ZM60.6934 12.6895V26.745H64.2376V18.6612C64.2376 17.755 64.4885 17.0348 64.9901 16.5007C65.508 15.9666 66.1878 15.6996 67.0293 15.6996C67.7414 15.6996 68.3077 15.9505 68.7286 16.4521C69.1655 16.9377 69.384 17.5931 69.384 18.4185V26.745H72.9282V17.6416C72.9282 15.9586 72.5237 14.6558 71.7144 13.7333C70.9215 12.8108 69.8048 12.3496 68.3644 12.3496C67.5066 12.3496 66.7218 12.5519 66.0097 12.9565C65.3138 13.3449 64.7635 13.879 64.359 14.5587H64.2376V12.6895H60.6934ZM79.8016 26.7459L74.291 12.6904H78.2236L81.695 22.4734H81.8407L85.0936 12.6904H89.0263L81.1853 32.742H77.374L79.8016 26.7459ZM88.6602 7.51953L93.7095 26.7457H97.4722L101.599 13.1757H101.745L105.871 26.7457H109.61L114.853 7.51953H110.994L107.644 21.1138H107.498L103.638 7.51953H99.7055L95.9914 21.1138H95.8457L92.4957 7.51953H88.6602ZM127.981 18.6612C127.981 19.5514 127.883 20.3362 127.689 21.0159H118.586C118.732 22.0032 119.08 22.7719 119.63 23.3221C120.181 23.8562 120.925 24.1232 121.864 24.1232C122.463 24.1232 123.013 23.9533 123.514 23.6134C124.016 23.2736 124.429 22.8043 124.752 22.2054L127.641 23.5649C127.124 24.6815 126.363 25.5475 125.359 26.1624C124.372 26.7774 123.198 27.0848 121.839 27.0848C120.431 27.0848 119.201 26.7935 118.149 26.2109C117.114 25.6122 116.313 24.7706 115.746 23.6863C115.18 22.5858 114.896 21.2992 114.896 19.8264C114.896 18.3052 115.172 16.9862 115.722 15.8695C116.272 14.7367 117.049 13.8709 118.052 13.2721C119.072 12.6571 120.27 12.3496 121.645 12.3496C122.907 12.3496 124.016 12.6085 124.97 13.1264C125.926 13.6443 126.662 14.3807 127.179 15.3355C127.713 16.2904 127.981 17.3989 127.981 18.6612ZM124.363 18.0786C124.363 17.2371 124.121 16.5655 123.635 16.0637C123.15 15.5621 122.487 15.3112 121.645 15.3112C120.868 15.3112 120.229 15.554 119.727 16.0395C119.226 16.5088 118.878 17.1885 118.683 18.0786H124.363ZM130.367 7.51963V26.7458H133.912V24.998H134.033C134.486 25.6615 135.044 26.1713 135.708 26.5273C136.371 26.8996 137.099 27.0857 137.893 27.0857C139.025 27.0857 140.02 26.7782 140.879 26.1632C141.736 25.532 142.399 24.6501 142.869 23.5172C143.338 22.3844 143.573 21.0653 143.573 19.5603C143.573 18.12 143.338 16.8577 142.869 15.7733C142.399 14.689 141.736 13.8555 140.879 13.2729C140.036 12.6741 139.058 12.3747 137.941 12.3747C137.164 12.3747 136.428 12.5608 135.732 12.9331C135.052 13.2891 134.486 13.7908 134.033 14.4382H133.912V7.51963H130.367ZM134.64 22.6433C134.089 21.8988 133.814 20.9278 133.814 19.7302C133.814 18.5164 134.097 17.5454 134.664 16.8171C135.23 16.0727 135.975 15.7005 136.897 15.7005C137.82 15.7005 138.555 16.0727 139.106 16.8171C139.672 17.5454 139.956 18.5164 139.956 19.7302C139.956 20.9278 139.665 21.8988 139.082 22.6433C138.515 23.3715 137.763 23.7356 136.825 23.7356C135.918 23.7356 135.19 23.3715 134.64 22.6433ZM172.387 21.6712C173.373 22.9335 174.684 24.123 176.319 25.2397L174.644 28.3227C173.074 27.0118 171.755 25.6363 170.687 24.1959C169.602 25.5392 168.146 26.931 166.318 28.3713L164.546 26.0165L163.914 27.2303L161.293 25.7981C159.868 26.7044 157.91 27.5459 155.418 28.3227L154.229 25.8466C156.122 25.3125 157.579 24.827 158.598 24.3901C157.433 23.7913 156.323 23.2491 155.272 22.7636C155.434 22.5209 155.782 21.914 156.316 20.943H154.544V18.5882H157.457C157.748 17.9571 157.983 17.3745 158.161 16.8404L160.807 17.5687C160.662 17.9895 160.532 18.3293 160.419 18.5882H165.589V20.8459C165.007 22.1082 164.327 23.144 163.55 23.9531L165.201 24.7785L164.57 25.968C166.56 24.5924 168.081 23.1602 169.134 21.6712C168.34 20.1176 167.75 18.3375 167.362 16.3306L166.779 17.3502L165.808 15.5053L164.885 17.4716C163.46 16.6462 162.465 16.096 161.9 15.8208V16.9618H159.351V15.044C158.283 16.1284 157.003 17.0831 155.515 17.9085L154.35 15.6266C155.774 14.9631 157.036 14.1458 158.137 13.1748H154.714V10.7958H159.351V6.15919H161.9V10.7958H163.963L162.118 9.48493C162.814 8.56246 163.502 7.55097 164.181 6.45049L166.124 7.76137L165.517 8.65956C165.128 9.24218 164.626 9.95425 164.012 10.7958H166.075V13.0777C166.625 11.9934 167.119 10.8201 167.556 9.55776C167.993 8.27924 168.324 7.08974 168.551 5.98926L171.197 6.49904C170.986 7.45387 170.719 8.40062 170.396 9.33928H176.198V12.2766H174.741C174.547 14.3643 174.263 16.1527 173.892 17.6415C173.535 19.1304 173.034 20.4737 172.387 21.6712ZM156.996 10.6259C156.608 9.97853 155.944 9.00751 155.005 7.71282L156.777 6.45049C157.651 7.69663 158.371 8.68384 158.938 9.41211L156.996 10.6259ZM169.207 12.4465C169.514 15.0683 170.015 17.1884 170.712 18.8067C171.374 17.1237 171.86 14.9469 172.168 12.2766H169.279L169.207 12.4465ZM161.9 13.3447C163.145 13.8788 164.391 14.5019 165.638 15.214L165.274 14.51C165.645 13.8626 165.897 13.4176 166.026 13.1748H161.9V13.3447ZM161.22 22.8364C161.834 22.3024 162.328 21.6712 162.701 20.943H159.351L158.914 21.8169L161.22 22.8364ZM191.783 22.0361V24.1724H194.769V22.0361H200.207V19.3173H194.769V17.1567H199.381V14.5107H194.769V11.7919H191.783V14.5107H189.113C189.678 13.6044 190.31 12.3826 191.006 10.8451H200.085V8.17481H192.172C192.527 7.34944 192.81 6.61308 193.021 5.96574L190.084 5.65016C189.744 6.62118 189.42 7.46273 189.113 8.17481H185.277V10.8451H187.923C187.211 12.3017 186.515 13.5316 185.836 14.535V17.1567H191.783V19.3173H184.986V22.0361H191.783ZM180.981 9.8741C181.579 10.7804 182.04 11.5086 182.364 12.0589L184.792 10.214C184.371 9.5666 183.845 8.79788 183.214 7.90778C182.583 7.00149 182.073 6.2975 181.685 5.79581L179.354 7.44655C179.84 8.14244 180.381 8.95163 180.981 9.8741ZM199.964 27.7409L200.571 24.8278H189.72C188.23 24.8278 187.041 24.6579 186.151 24.318C185.26 23.962 184.556 23.4037 184.039 22.643V13.6125H178.674V16.5984H181.053V22.5216L178.602 24.7792L179.912 28.0807L182.486 25.3376C183.294 26.26 184.209 26.8912 185.229 27.2311C186.264 27.5709 187.696 27.7409 189.526 27.7409H199.964Z" fill="#473E6B"/>
</g>
<defs>
<clipPath id="clip0_3244_17229">
<rect width="144" height="36" fill="white"/>
</clipPath>
</defs>
</svg>
