<svg width="464" height="464" viewBox="0 0 464 464" fill="none" xmlns="http://www.w3.org/2000/svg">
<mask id="path-1-inside-1_3244_19152" fill="white">
<path fill-rule="evenodd" clip-rule="evenodd" d="M101 127.5C101 57.0837 158.084 0 228.5 0C298.916 0 356 57.0837 356 127.5V151H273V127.5C273 102.923 253.077 83 228.5 83C203.923 83 184 102.923 184 127.5V657H101V127.5Z"/>
</mask>
<path fill-rule="evenodd" clip-rule="evenodd" d="M101 127.5C101 57.0837 158.084 0 228.5 0C298.916 0 356 57.0837 356 127.5V151H273V127.5C273 102.923 253.077 83 228.5 83C203.923 83 184 102.923 184 127.5V657H101V127.5Z" fill="#B7AEFF"/>
<path d="M356 151V153H358V151H356ZM273 151H271V153H273V151ZM184 657V659H186V657H184ZM101 657H99V659H101V657ZM228.5 -2C156.979 -2 99 55.9791 99 127.5H103C103 58.1882 159.188 2 228.5 2V-2ZM358 127.5C358 55.9791 300.021 -2 228.5 -2V2C297.812 2 354 58.1883 354 127.5H358ZM358 151V127.5H354V151H358ZM273 153H356V149H273V153ZM271 127.5V151H275V127.5H271ZM228.5 85C251.972 85 271 104.028 271 127.5H275C275 101.819 254.181 81 228.5 81V85ZM186 127.5C186 104.028 205.028 85 228.5 85V81C202.819 81 182 101.819 182 127.5H186ZM186 657V127.5H182V657H186ZM101 659H184V655H101V659ZM99 127.5V657H103V127.5H99Z" fill="#483E6B" mask="url(#path-1-inside-1_3244_19152)"/>
<mask id="path-3-inside-2_3244_19152" fill="white">
<path fill-rule="evenodd" clip-rule="evenodd" d="M117 128C117 66.1441 167.144 16 229 16C290.856 16 341 66.1441 341 128V151H273V127.5C273 102.923 253.077 83 228.5 83C203.923 83 184 102.923 184 127.5V657H117V128Z"/>
</mask>
<path fill-rule="evenodd" clip-rule="evenodd" d="M117 128C117 66.1441 167.144 16 229 16C290.856 16 341 66.1441 341 128V151H273V127.5C273 102.923 253.077 83 228.5 83C203.923 83 184 102.923 184 127.5V657H117V128Z" fill="#9CDBFB"/>
<path d="M341 151V153H343V151H341ZM273 151H271V153H273V151ZM184 657V659H186V657H184ZM117 657H115V659H117V657ZM229 14C166.04 14 115 65.0395 115 128H119C119 67.2487 168.249 18 229 18V14ZM343 128C343 65.0395 291.96 14 229 14V18C289.751 18 339 67.2487 339 128H343ZM343 151V128H339V151H343ZM273 153H341V149H273V153ZM271 127.5V151H275V127.5H271ZM228.5 85C251.972 85 271 104.028 271 127.5H275C275 101.819 254.181 81 228.5 81V85ZM186 127.5C186 104.028 205.028 85 228.5 85V81C202.819 81 182 101.819 182 127.5H186ZM186 657V127.5H182V657H186ZM117 659H184V655H117V659ZM115 128V657H119V128H115Z" fill="#483E6B" mask="url(#path-3-inside-2_3244_19152)"/>
<mask id="path-5-inside-3_3244_19152" fill="white">
<path fill-rule="evenodd" clip-rule="evenodd" d="M132 127.5C132 74.2045 175.205 31 228.5 31C281.795 31 325 74.2045 325 127.5V151H273V127.5C273 102.923 253.077 83 228.5 83C203.923 83 184 102.923 184 127.5V657H132V127.5Z"/>
</mask>
<path fill-rule="evenodd" clip-rule="evenodd" d="M132 127.5C132 74.2045 175.205 31 228.5 31C281.795 31 325 74.2045 325 127.5V151H273V127.5C273 102.923 253.077 83 228.5 83C203.923 83 184 102.923 184 127.5V657H132V127.5Z" fill="#CCFEB2"/>
<path d="M325 151V153H327V151H325ZM273 151H271V153H273V151ZM184 657V659H186V657H184ZM132 657H130V659H132V657ZM228.5 29C174.1 29 130 73.0999 130 127.5H134C134 75.3091 176.309 33 228.5 33V29ZM327 127.5C327 73.0999 282.9 29 228.5 29V33C280.691 33 323 75.3091 323 127.5H327ZM327 151V127.5H323V151H327ZM273 153H325V149H273V153ZM271 127.5V151H275V127.5H271ZM228.5 85C251.972 85 271 104.028 271 127.5H275C275 101.819 254.181 81 228.5 81V85ZM186 127.5C186 104.028 205.028 85 228.5 85V81C202.819 81 182 101.819 182 127.5H186ZM186 657V127.5H182V657H186ZM132 659H184V655H132V659ZM130 127.5V657H134V127.5H130Z" fill="#483E6B" mask="url(#path-5-inside-3_3244_19152)"/>
<mask id="path-7-inside-4_3244_19152" fill="white">
<path fill-rule="evenodd" clip-rule="evenodd" d="M148 127.5C148 83.0411 184.041 47 228.5 47C272.959 47 309 83.0411 309 127.5V151H273V127.5C273 102.923 253.077 83 228.5 83C203.923 83 184 102.923 184 127.5V657H148V127.5Z"/>
</mask>
<path fill-rule="evenodd" clip-rule="evenodd" d="M148 127.5C148 83.0411 184.041 47 228.5 47C272.959 47 309 83.0411 309 127.5V151H273V127.5C273 102.923 253.077 83 228.5 83C203.923 83 184 102.923 184 127.5V657H148V127.5Z" fill="#FFF29E"/>
<path d="M309 151V153H311V151H309ZM273 151H271V153H273V151ZM184 657V659H186V657H184ZM148 657H146V659H148V657ZM228.5 45C182.937 45 146 81.9365 146 127.5H150C150 84.1456 185.146 49 228.5 49V45ZM311 127.5C311 81.9365 274.063 45 228.5 45V49C271.854 49 307 84.1456 307 127.5H311ZM311 151V127.5H307V151H311ZM273 153H309V149H273V153ZM271 127.5V151H275V127.5H271ZM228.5 85C251.972 85 271 104.028 271 127.5H275C275 101.819 254.181 81 228.5 81V85ZM186 127.5C186 104.028 205.028 85 228.5 85V81C202.819 81 182 101.819 182 127.5H186ZM186 657V127.5H182V657H186ZM148 659H184V655H148V659ZM146 127.5V657H150V127.5H146Z" fill="#483E6B" mask="url(#path-7-inside-4_3244_19152)"/>
<mask id="path-9-inside-5_3244_19152" fill="white">
<path fill-rule="evenodd" clip-rule="evenodd" d="M164 127C164 91.1015 193.101 62 229 62C264.899 62 294 91.1015 294 127V151H273V127.5C273 102.923 253.077 83 228.5 83C203.923 83 184 102.923 184 127.5V657H164V127Z"/>
</mask>
<path fill-rule="evenodd" clip-rule="evenodd" d="M164 127C164 91.1015 193.101 62 229 62C264.899 62 294 91.1015 294 127V151H273V127.5C273 102.923 253.077 83 228.5 83C203.923 83 184 102.923 184 127.5V657H164V127Z" fill="#FFADC0"/>
<path d="M294 151V153H296V151H294ZM273 151H271V153H273V151ZM184 657V659H186V657H184ZM164 657H162V659H164V657ZM229 60C191.997 60 162 89.9969 162 127H166C166 92.2061 194.206 64 229 64V60ZM296 127C296 89.9969 266.003 60 229 60V64C263.794 64 292 92.2061 292 127H296ZM296 151V127H292V151H296ZM273 153H294V149H273V153ZM271 127.5V151H275V127.5H271ZM228.5 85C251.972 85 271 104.028 271 127.5H275C275 101.819 254.181 81 228.5 81V85ZM186 127.5C186 104.028 205.028 85 228.5 85V81C202.819 81 182 101.819 182 127.5H186ZM186 657V127.5H182V657H186ZM164 659H184V655H164V659ZM162 127V657H166V127H162Z" fill="#483E6B" mask="url(#path-9-inside-5_3244_19152)"/>
<mask id="path-11-inside-6_3244_19152" fill="white">
<path fill-rule="evenodd" clip-rule="evenodd" d="M414.387 218.759C414.434 218.759 414.481 218.759 414.528 218.759C441.525 218.759 463.41 196.874 463.41 169.877C463.41 142.88 441.525 120.995 414.528 120.995C407.062 120.995 399.987 122.668 393.658 125.661C385.311 99.7483 361.002 81 332.313 81C296.914 81 268.182 109.545 267.88 144.873C264.368 143.794 260.638 143.213 256.772 143.213C235.911 143.213 218.999 160.124 218.999 180.986C218.999 201.099 234.719 217.54 254.543 218.694V218.759H414.387Z"/>
</mask>
<path fill-rule="evenodd" clip-rule="evenodd" d="M414.387 218.759C414.434 218.759 414.481 218.759 414.528 218.759C441.525 218.759 463.41 196.874 463.41 169.877C463.41 142.88 441.525 120.995 414.528 120.995C407.062 120.995 399.987 122.668 393.658 125.661C385.311 99.7483 361.002 81 332.313 81C296.914 81 268.182 109.545 267.88 144.873C264.368 143.794 260.638 143.213 256.772 143.213C235.911 143.213 218.999 160.124 218.999 180.986C218.999 201.099 234.719 217.54 254.543 218.694V218.759H414.387Z" fill="white"/>
<path d="M414.387 218.759V216.759L414.393 216.759L414.387 218.759ZM393.658 125.661L394.513 127.469C393.992 127.715 393.391 127.725 392.863 127.496C392.335 127.267 391.931 126.822 391.754 126.274L393.658 125.661ZM267.88 144.873L269.88 144.89C269.874 145.521 269.571 146.113 269.062 146.486C268.552 146.859 267.896 146.97 267.293 146.785L267.88 144.873ZM254.543 218.694L254.659 216.697C255.717 216.759 256.543 217.634 256.543 218.694H254.543ZM254.543 218.759V220.759C253.439 220.759 252.543 219.864 252.543 218.759H254.543ZM414.393 216.759C414.438 216.759 414.483 216.759 414.528 216.759V220.759C414.479 220.759 414.43 220.759 414.381 220.759L414.393 216.759ZM414.528 216.759C440.42 216.759 461.41 195.769 461.41 169.877H465.41C465.41 197.978 442.629 220.759 414.528 220.759V216.759ZM461.41 169.877C461.41 143.985 440.42 122.995 414.528 122.995V118.995C442.629 118.995 465.41 141.775 465.41 169.877H461.41ZM414.528 122.995C407.364 122.995 400.58 124.6 394.513 127.469L392.803 123.853C399.394 120.737 406.76 118.995 414.528 118.995V122.995ZM391.754 126.274C383.666 101.164 360.108 83 332.313 83V79C361.895 79 386.956 98.3328 395.562 125.048L391.754 126.274ZM332.313 83C298.013 83 270.173 110.659 269.88 144.89L265.88 144.856C266.192 108.431 295.815 79 332.313 79V83ZM267.293 146.785C263.969 145.763 260.436 145.213 256.772 145.213V141.213C260.839 141.213 264.767 141.824 268.467 142.961L267.293 146.785ZM256.772 145.213C237.015 145.213 220.999 161.229 220.999 180.986H216.999C216.999 159.02 234.806 141.213 256.772 141.213V145.213ZM220.999 180.986C220.999 200.033 235.887 215.605 254.659 216.697L254.427 220.69C233.552 219.476 216.999 202.164 216.999 180.986H220.999ZM256.543 218.694V218.759H252.543V218.694H256.543ZM254.543 216.759H414.387V220.759H254.543V216.759Z" fill="#483E6B" mask="url(#path-11-inside-6_3244_19152)"/>
<mask id="path-13-inside-7_3244_19152" fill="white">
<path fill-rule="evenodd" clip-rule="evenodd" d="M160.41 442.108C160.454 442.109 160.497 442.109 160.54 442.109C182.707 442.109 200.676 424.139 200.676 401.973C200.676 379.807 182.707 361.838 160.54 361.838C154.411 361.838 148.602 363.212 143.406 365.669C136.552 344.393 116.593 329 93.0381 329C63.9733 329 40.3826 352.437 40.1344 381.444C37.2506 380.558 34.1878 380.081 31.0135 380.081C13.8852 380.081 -0.000137329 393.966 -0.000137329 411.094C-0.000137329 427.608 12.9068 441.108 29.1832 442.055V442.108H160.41Z"/>
</mask>
<path fill-rule="evenodd" clip-rule="evenodd" d="M160.41 442.108C160.454 442.109 160.497 442.109 160.54 442.109C182.707 442.109 200.676 424.139 200.676 401.973C200.676 379.807 182.707 361.838 160.54 361.838C154.411 361.838 148.602 363.212 143.406 365.669C136.552 344.393 116.593 329 93.0381 329C63.9733 329 40.3826 352.437 40.1344 381.444C37.2506 380.558 34.1878 380.081 31.0135 380.081C13.8852 380.081 -0.000137329 393.966 -0.000137329 411.094C-0.000137329 427.608 12.9068 441.108 29.1832 442.055V442.108H160.41Z" fill="white"/>
<path d="M160.41 442.108V440.108L160.417 440.109L160.41 442.108ZM143.406 365.669L144.261 367.477C143.74 367.723 143.139 367.733 142.611 367.504C142.082 367.275 141.678 366.83 141.502 366.282L143.406 365.669ZM40.1344 381.444L42.1343 381.461C42.1289 382.092 41.8255 382.684 41.316 383.057C40.8065 383.43 40.1507 383.541 39.547 383.355L40.1344 381.444ZM29.1832 442.055L29.2994 440.058C30.357 440.12 31.1832 440.995 31.1832 442.055H29.1832ZM29.1832 442.108V444.108C28.0786 444.108 27.1832 443.213 27.1832 442.108H29.1832ZM160.417 440.109C160.458 440.109 160.499 440.109 160.54 440.109V444.109C160.495 444.109 160.45 444.109 160.404 444.108L160.417 440.109ZM160.54 440.109C181.602 440.109 198.676 423.035 198.676 401.973H202.676C202.676 425.244 183.811 444.109 160.54 444.109V440.109ZM198.676 401.973C198.676 380.912 181.602 363.838 160.54 363.838V359.838C183.811 359.838 202.676 378.703 202.676 401.973H198.676ZM160.54 363.838C154.713 363.838 149.195 365.144 144.261 367.477L142.551 363.861C148.009 361.28 154.109 359.838 160.54 359.838V363.838ZM141.502 366.282C134.907 345.809 115.699 331 93.0381 331V327C117.486 327 138.198 342.978 145.309 365.056L141.502 366.282ZM93.0381 331C65.0721 331 42.3731 353.551 42.1343 381.461L38.1344 381.426C38.392 351.323 62.8744 327 93.0381 327V331ZM39.547 383.355C36.8514 382.527 33.9865 382.081 31.0135 382.081V378.081C34.3891 378.081 37.6498 378.588 40.7218 379.532L39.547 383.355ZM31.0135 382.081C14.9897 382.081 1.99986 395.071 1.99986 411.094H-2.00014C-2.00014 392.861 12.7806 378.081 31.0135 378.081V382.081ZM1.99986 411.094C1.99986 426.543 14.0744 439.172 29.2994 440.058L29.067 444.052C11.7392 443.043 -2.00014 428.674 -2.00014 411.094H1.99986ZM31.1832 442.055V442.108H27.1832V442.055H31.1832ZM29.1832 440.108H160.41V444.108H29.1832V440.108Z" fill="#483E6B" mask="url(#path-13-inside-7_3244_19152)"/>
<mask id="path-15-inside-8_3244_19152" fill="white">
<path fill-rule="evenodd" clip-rule="evenodd" d="M258.997 245.421C244.271 245.421 232.334 233.484 232.334 218.758C232.334 204.033 244.271 192.095 258.997 192.095C261.309 192.095 263.553 192.389 265.692 192.943C270.746 179.467 283.748 169.875 298.989 169.875C317.287 169.875 332.356 183.699 334.322 201.473C335.826 201.152 337.387 200.983 338.987 200.983C351.258 200.983 361.206 210.93 361.206 223.202C361.206 235.473 351.258 245.421 338.987 245.421C338.987 245.421 338.987 245.421 338.986 245.421V245.422H258.997L258.997 245.421Z"/>
</mask>
<path fill-rule="evenodd" clip-rule="evenodd" d="M258.997 245.421C244.271 245.421 232.334 233.484 232.334 218.758C232.334 204.033 244.271 192.095 258.997 192.095C261.309 192.095 263.553 192.389 265.692 192.943C270.746 179.467 283.748 169.875 298.989 169.875C317.287 169.875 332.356 183.699 334.322 201.473C335.826 201.152 337.387 200.983 338.987 200.983C351.258 200.983 361.206 210.93 361.206 223.202C361.206 235.473 351.258 245.421 338.987 245.421C338.987 245.421 338.987 245.421 338.986 245.421V245.422H258.997L258.997 245.421Z" fill="white"/>
<path d="M258.997 245.421L260.995 245.507C261.019 244.962 260.818 244.431 260.441 244.038C260.064 243.644 259.542 243.421 258.997 243.421V245.421ZM265.692 192.943L265.191 194.879C266.181 195.135 267.205 194.603 267.564 193.645L265.692 192.943ZM334.322 201.473L332.334 201.693C332.397 202.255 332.694 202.764 333.152 203.095C333.61 203.426 334.187 203.547 334.74 203.429L334.322 201.473ZM338.986 245.421V243.421C337.882 243.421 336.986 244.316 336.986 245.421H338.986ZM338.986 245.422V247.422C340.091 247.422 340.986 246.526 340.986 245.422H338.986ZM258.997 245.422L256.999 245.336C256.976 245.881 257.176 246.411 257.553 246.805C257.93 247.199 258.452 247.422 258.997 247.422V245.422ZM258.997 243.421C245.376 243.421 234.334 232.379 234.334 218.758H230.334C230.334 234.588 243.167 247.421 258.997 247.421V243.421ZM234.334 218.758C234.334 205.137 245.376 194.095 258.997 194.095V190.095C243.167 190.095 230.334 202.928 230.334 218.758H234.334ZM258.997 194.095C261.139 194.095 263.214 194.368 265.191 194.879L266.192 191.006C263.891 190.411 261.48 190.095 258.997 190.095V194.095ZM267.564 193.645C272.336 180.924 284.608 171.875 298.989 171.875V167.875C282.887 167.875 269.157 178.009 263.819 192.24L267.564 193.645ZM298.989 171.875C316.256 171.875 330.479 184.921 332.334 201.693L336.31 201.253C334.233 182.477 318.318 167.875 298.989 167.875V171.875ZM334.74 203.429C336.108 203.137 337.528 202.983 338.987 202.983V198.983C337.246 198.983 335.545 199.167 333.905 199.517L334.74 203.429ZM338.987 202.983C350.154 202.983 359.206 212.035 359.206 223.202H363.206C363.206 209.826 352.363 198.983 338.987 198.983V202.983ZM359.206 223.202C359.206 234.369 350.154 243.421 338.987 243.421V247.421C352.363 247.421 363.206 236.578 363.206 223.202H359.206ZM338.987 243.421C338.987 243.421 338.987 243.421 338.987 243.421C338.987 243.421 338.987 243.421 338.987 243.421C338.987 243.421 338.987 243.421 338.987 243.421H338.987C338.987 243.421 338.987 243.421 338.987 243.421C338.987 243.421 338.987 243.421 338.987 243.421H338.987C338.987 243.421 338.987 243.421 338.987 243.421C338.987 243.421 338.987 243.421 338.987 243.421H338.987C338.987 243.421 338.987 243.421 338.987 243.421C338.987 243.421 338.987 243.421 338.987 243.421H338.987C338.987 243.421 338.987 243.421 338.987 243.421C338.987 243.421 338.987 243.421 338.987 243.421H338.987C338.987 243.421 338.987 243.421 338.987 243.421C338.987 243.421 338.987 243.421 338.987 243.421H338.987C338.987 243.421 338.987 243.421 338.987 243.421C338.987 243.421 338.987 243.421 338.987 243.421H338.987H338.987C338.987 243.421 338.987 243.421 338.987 243.421C338.987 243.421 338.987 243.421 338.987 243.421H338.987C338.987 243.421 338.987 243.421 338.987 243.421C338.987 243.421 338.987 243.421 338.987 243.421C338.987 243.421 338.987 243.421 338.987 243.421H338.987C338.987 243.421 338.987 243.421 338.987 243.421C338.987 243.421 338.987 243.421 338.987 243.421H338.987H338.987C338.987 243.421 338.987 243.421 338.987 243.421C338.987 243.421 338.987 243.421 338.987 243.421H338.987C338.987 243.421 338.987 243.421 338.987 243.421C338.987 243.421 338.987 243.421 338.987 243.421C338.987 243.421 338.987 243.421 338.987 243.421H338.987C338.987 243.421 338.987 243.421 338.987 243.421C338.987 243.421 338.987 243.421 338.987 243.421C338.987 243.421 338.987 243.421 338.987 243.421H338.987C338.987 243.421 338.987 243.421 338.987 243.421C338.987 243.421 338.987 243.421 338.987 243.421H338.986C338.986 243.421 338.986 243.421 338.986 243.421C338.986 243.421 338.986 243.421 338.986 243.421C338.986 243.421 338.986 243.421 338.986 243.421H338.986C338.986 243.421 338.986 243.421 338.986 243.421C338.986 243.421 338.986 243.421 338.986 243.421H338.986C338.986 243.421 338.986 243.421 338.986 243.421C338.986 243.421 338.986 243.421 338.986 243.421H338.986C338.986 243.421 338.986 243.421 338.986 243.421C338.986 243.421 338.986 243.421 338.986 243.421H338.986C338.986 243.421 338.986 243.421 338.986 243.421C338.986 243.421 338.986 243.421 338.986 243.421H338.986C338.986 243.421 338.986 243.421 338.986 243.421C338.986 243.421 338.986 243.421 338.986 243.421H338.986C338.986 243.421 338.986 243.421 338.986 243.421H338.986C338.986 243.421 338.986 243.421 338.986 243.421V247.421C338.986 247.421 338.986 247.421 338.986 247.421H338.986C338.986 247.421 338.986 247.421 338.986 247.421H338.986C338.986 247.421 338.986 247.421 338.986 247.421C338.986 247.421 338.986 247.421 338.986 247.421H338.986C338.986 247.421 338.986 247.421 338.986 247.421C338.986 247.421 338.986 247.421 338.986 247.421H338.986C338.986 247.421 338.986 247.421 338.986 247.421C338.986 247.421 338.986 247.421 338.986 247.421H338.986C338.986 247.421 338.986 247.421 338.986 247.421C338.986 247.421 338.986 247.421 338.986 247.421H338.986C338.986 247.421 338.986 247.421 338.986 247.421C338.986 247.421 338.986 247.421 338.986 247.421H338.986C338.986 247.421 338.986 247.421 338.986 247.421C338.986 247.421 338.986 247.421 338.986 247.421C338.986 247.421 338.986 247.421 338.986 247.421H338.987C338.987 247.421 338.987 247.421 338.987 247.421C338.987 247.421 338.987 247.421 338.987 247.421H338.987C338.987 247.421 338.987 247.421 338.987 247.421C338.987 247.421 338.987 247.421 338.987 247.421C338.987 247.421 338.987 247.421 338.987 247.421H338.987C338.987 247.421 338.987 247.421 338.987 247.421C338.987 247.421 338.987 247.421 338.987 247.421C338.987 247.421 338.987 247.421 338.987 247.421H338.987C338.987 247.421 338.987 247.421 338.987 247.421C338.987 247.421 338.987 247.421 338.987 247.421H338.987H338.987C338.987 247.421 338.987 247.421 338.987 247.421C338.987 247.421 338.987 247.421 338.987 247.421H338.987C338.987 247.421 338.987 247.421 338.987 247.421C338.987 247.421 338.987 247.421 338.987 247.421C338.987 247.421 338.987 247.421 338.987 247.421H338.987C338.987 247.421 338.987 247.421 338.987 247.421C338.987 247.421 338.987 247.421 338.987 247.421H338.987H338.987C338.987 247.421 338.987 247.421 338.987 247.421C338.987 247.421 338.987 247.421 338.987 247.421H338.987C338.987 247.421 338.987 247.421 338.987 247.421C338.987 247.421 338.987 247.421 338.987 247.421H338.987C338.987 247.421 338.987 247.421 338.987 247.421C338.987 247.421 338.987 247.421 338.987 247.421H338.987C338.987 247.421 338.987 247.421 338.987 247.421C338.987 247.421 338.987 247.421 338.987 247.421H338.987C338.987 247.421 338.987 247.421 338.987 247.421C338.987 247.421 338.987 247.421 338.987 247.421H338.987C338.987 247.421 338.987 247.421 338.987 247.421C338.987 247.421 338.987 247.421 338.987 247.421H338.987C338.987 247.421 338.987 247.421 338.987 247.421C338.987 247.421 338.987 247.421 338.987 247.421C338.987 247.421 338.987 247.421 338.987 247.421V243.421ZM336.986 245.421V245.422H340.986V245.421H336.986ZM338.986 243.422H258.997V247.422H338.986V243.422ZM260.995 245.507L260.995 245.507L256.999 245.336L256.999 245.336L260.995 245.507Z" fill="#483E6B" mask="url(#path-15-inside-8_3244_19152)"/>
<mask id="path-17-inside-9_3244_19152" fill="white">
<path fill-rule="evenodd" clip-rule="evenodd" d="M100.655 464.028C86.2261 464.027 74.5293 452.33 74.5293 437.9C74.5293 423.471 86.2269 411.773 100.657 411.773C102.922 411.773 105.12 412.061 107.216 412.603C112.169 399.398 124.909 390 139.844 390C157.774 390 172.541 403.546 174.468 420.963C175.942 420.648 177.471 420.482 179.039 420.482C191.063 420.482 200.811 430.23 200.811 442.255C200.811 454.279 191.063 464.027 179.039 464.027C179.038 464.027 179.038 464.027 179.037 464.027V464.028H100.655V464.028Z"/>
</mask>
<path fill-rule="evenodd" clip-rule="evenodd" d="M100.655 464.028C86.2261 464.027 74.5293 452.33 74.5293 437.9C74.5293 423.471 86.2269 411.773 100.657 411.773C102.922 411.773 105.12 412.061 107.216 412.603C112.169 399.398 124.909 390 139.844 390C157.774 390 172.541 403.546 174.468 420.963C175.942 420.648 177.471 420.482 179.039 420.482C191.063 420.482 200.811 430.23 200.811 442.255C200.811 454.279 191.063 464.027 179.039 464.027C179.038 464.027 179.038 464.027 179.037 464.027V464.028H100.655V464.028Z" fill="white"/>
<path d="M100.655 464.028H102.655C102.655 462.923 101.76 462.028 100.655 462.028L100.655 464.028ZM107.216 412.603L106.716 414.54C107.706 414.796 108.73 414.263 109.089 413.306L107.216 412.603ZM174.468 420.963L172.48 421.182C172.542 421.744 172.839 422.254 173.297 422.584C173.756 422.915 174.333 423.037 174.885 422.918L174.468 420.963ZM179.037 464.027V462.027C177.932 462.027 177.037 462.923 177.037 464.027H179.037ZM179.037 464.028V466.028C180.142 466.028 181.037 465.132 181.037 464.028H179.037ZM100.655 464.028H98.6552C98.6552 465.132 99.5507 466.028 100.655 466.028V464.028ZM100.655 462.028C87.3308 462.027 76.5293 451.225 76.5293 437.9H72.5293C72.5293 453.434 85.1215 466.027 100.655 466.028L100.655 462.028ZM76.5293 437.9C76.5293 424.575 87.3314 413.773 100.657 413.773V409.773C85.1223 409.773 72.5293 422.366 72.5293 437.9H76.5293ZM100.657 413.773C102.752 413.773 104.782 414.04 106.716 414.54L107.717 410.667C105.459 410.083 103.092 409.773 100.657 409.773V413.773ZM109.089 413.306C113.759 400.856 125.77 392 139.844 392V388C124.049 388 110.58 397.941 105.344 411.901L109.089 413.306ZM139.844 392C156.744 392 170.664 404.768 172.48 421.182L176.455 420.743C174.418 402.324 158.805 388 139.844 388V392ZM174.885 422.918C176.223 422.633 177.612 422.482 179.039 422.482V418.482C177.329 418.482 175.66 418.663 174.05 419.007L174.885 422.918ZM179.039 422.482C189.959 422.482 198.811 431.334 198.811 442.255H202.811C202.811 429.125 192.168 418.482 179.039 418.482V422.482ZM198.811 442.255C198.811 453.175 189.959 462.027 179.039 462.027V466.027C192.168 466.027 202.811 455.384 202.811 442.255H198.811ZM179.039 462.027C179.039 462.027 179.039 462.027 179.039 462.027H179.039C179.039 462.027 179.039 462.027 179.039 462.027C179.039 462.027 179.039 462.027 179.039 462.027H179.039C179.039 462.027 179.039 462.027 179.039 462.027H179.039C179.039 462.027 179.039 462.027 179.039 462.027C179.039 462.027 179.039 462.027 179.039 462.027H179.039C179.039 462.027 179.039 462.027 179.039 462.027H179.039C179.039 462.027 179.039 462.027 179.039 462.027C179.039 462.027 179.039 462.027 179.039 462.027H179.039C179.039 462.027 179.039 462.027 179.039 462.027H179.039C179.039 462.027 179.039 462.027 179.039 462.027C179.039 462.027 179.039 462.027 179.039 462.027H179.039C179.039 462.027 179.039 462.027 179.039 462.027H179.038C179.038 462.027 179.038 462.027 179.038 462.027C179.038 462.027 179.038 462.027 179.038 462.027H179.038C179.038 462.027 179.038 462.027 179.038 462.027H179.038C179.038 462.027 179.038 462.027 179.038 462.027C179.038 462.027 179.038 462.027 179.038 462.027H179.038C179.038 462.027 179.038 462.027 179.038 462.027H179.038C179.038 462.027 179.038 462.027 179.038 462.027C179.038 462.027 179.038 462.027 179.038 462.027H179.038C179.038 462.027 179.038 462.027 179.038 462.027H179.038C179.038 462.027 179.038 462.027 179.038 462.027C179.038 462.027 179.038 462.027 179.038 462.027H179.038C179.038 462.027 179.038 462.027 179.038 462.027C179.038 462.027 179.038 462.027 179.038 462.027C179.038 462.027 179.038 462.027 179.038 462.027C179.038 462.027 179.038 462.027 179.038 462.027H179.038C179.038 462.027 179.038 462.027 179.038 462.027C179.038 462.027 179.038 462.027 179.038 462.027C179.038 462.027 179.038 462.027 179.038 462.027C179.038 462.027 179.038 462.027 179.038 462.027H179.038C179.038 462.027 179.038 462.027 179.038 462.027C179.038 462.027 179.038 462.027 179.038 462.027H179.038C179.038 462.027 179.038 462.027 179.038 462.027H179.038C179.038 462.027 179.038 462.027 179.038 462.027C179.038 462.027 179.038 462.027 179.038 462.027H179.038C179.038 462.027 179.038 462.027 179.038 462.027H179.038C179.038 462.027 179.038 462.027 179.038 462.027C179.038 462.027 179.038 462.027 179.038 462.027H179.038C179.038 462.027 179.038 462.027 179.038 462.027C179.038 462.027 179.038 462.027 179.038 462.027C179.038 462.027 179.038 462.027 179.038 462.027C179.038 462.027 179.038 462.027 179.038 462.027H179.038C179.038 462.027 179.038 462.027 179.038 462.027C179.038 462.027 179.038 462.027 179.038 462.027H179.038C179.038 462.027 179.038 462.027 179.038 462.027H179.038C179.038 462.027 179.038 462.027 179.038 462.027C179.038 462.027 179.038 462.027 179.038 462.027H179.038C179.038 462.027 179.038 462.027 179.038 462.027H179.038C179.038 462.027 179.038 462.027 179.038 462.027C179.038 462.027 179.038 462.027 179.038 462.027H179.038C179.038 462.027 179.038 462.027 179.038 462.027C179.038 462.027 179.038 462.027 179.038 462.027C179.038 462.027 179.038 462.027 179.038 462.027C179.038 462.027 179.038 462.027 179.038 462.027H179.038C179.038 462.027 179.038 462.027 179.038 462.027C179.038 462.027 179.038 462.027 179.038 462.027H179.038C179.038 462.027 179.038 462.027 179.038 462.027H179.038C179.038 462.027 179.038 462.027 179.038 462.027C179.038 462.027 179.038 462.027 179.038 462.027H179.038C179.038 462.027 179.038 462.027 179.038 462.027H179.038C179.038 462.027 179.038 462.027 179.038 462.027C179.038 462.027 179.038 462.027 179.038 462.027H179.038C179.038 462.027 179.038 462.027 179.038 462.027C179.038 462.027 179.038 462.027 179.038 462.027H179.038C179.038 462.027 179.038 462.027 179.038 462.027H179.038C179.038 462.027 179.038 462.027 179.038 462.027C179.038 462.027 179.038 462.027 179.038 462.027H179.038C179.038 462.027 179.038 462.027 179.038 462.027H179.038C179.038 462.027 179.038 462.027 179.038 462.027C179.038 462.027 179.038 462.027 179.038 462.027H179.038C179.038 462.027 179.038 462.027 179.038 462.027C179.038 462.027 179.038 462.027 179.038 462.027C179.038 462.027 179.038 462.027 179.038 462.027C179.038 462.027 179.038 462.027 179.038 462.027H179.038C179.038 462.027 179.038 462.027 179.038 462.027C179.038 462.027 179.038 462.027 179.038 462.027H179.038C179.038 462.027 179.038 462.027 179.038 462.027H179.038C179.038 462.027 179.038 462.027 179.038 462.027C179.038 462.027 179.038 462.027 179.038 462.027H179.038C179.038 462.027 179.038 462.027 179.038 462.027H179.038C179.038 462.027 179.038 462.027 179.038 462.027C179.038 462.027 179.038 462.027 179.038 462.027H179.038C179.038 462.027 179.038 462.027 179.038 462.027C179.038 462.027 179.038 462.027 179.038 462.027C179.038 462.027 179.038 462.027 179.038 462.027C179.038 462.027 179.038 462.027 179.038 462.027H179.038C179.038 462.027 179.038 462.027 179.038 462.027C179.038 462.027 179.038 462.027 179.038 462.027H179.038C179.038 462.027 179.038 462.027 179.038 462.027H179.038C179.038 462.027 179.038 462.027 179.038 462.027C179.038 462.027 179.038 462.027 179.038 462.027H179.038C179.038 462.027 179.038 462.027 179.038 462.027C179.038 462.027 179.038 462.027 179.038 462.027C179.038 462.027 179.038 462.027 179.038 462.027C179.038 462.027 179.038 462.027 179.038 462.027H179.038C179.038 462.027 179.038 462.027 179.038 462.027C179.038 462.027 179.038 462.027 179.038 462.027H179.038C179.038 462.027 179.038 462.027 179.038 462.027H179.037C179.037 462.027 179.037 462.027 179.037 462.027C179.037 462.027 179.037 462.027 179.037 462.027H179.037C179.037 462.027 179.037 462.027 179.037 462.027H179.037C179.037 462.027 179.037 462.027 179.037 462.027C179.037 462.027 179.037 462.027 179.037 462.027H179.037C179.037 462.027 179.037 462.027 179.037 462.027H179.037C179.037 462.027 179.037 462.027 179.037 462.027C179.037 462.027 179.037 462.027 179.037 462.027H179.037C179.037 462.027 179.037 462.027 179.037 462.027C179.037 462.027 179.037 462.027 179.037 462.027C179.037 462.027 179.037 462.027 179.037 462.027C179.037 462.027 179.037 462.027 179.037 462.027H179.037C179.037 462.027 179.037 462.027 179.037 462.027C179.037 462.027 179.037 462.027 179.037 462.027C179.037 462.027 179.037 462.027 179.037 462.027C179.037 462.027 179.037 462.027 179.037 462.027H179.037C179.037 462.027 179.037 462.027 179.037 462.027C179.037 462.027 179.037 462.027 179.037 462.027H179.037C179.037 462.027 179.037 462.027 179.037 462.027H179.037C179.037 462.027 179.037 462.027 179.037 462.027C179.037 462.027 179.037 462.027 179.037 462.027H179.037C179.037 462.027 179.037 462.027 179.037 462.027H179.037C179.037 462.027 179.037 462.027 179.037 462.027C179.037 462.027 179.037 462.027 179.037 462.027H179.037C179.037 462.027 179.037 462.027 179.037 462.027H179.037C179.037 462.027 179.037 462.027 179.037 462.027C179.037 462.027 179.037 462.027 179.037 462.027H179.037C179.037 462.027 179.037 462.027 179.037 462.027H179.037C179.037 462.027 179.037 462.027 179.037 462.027C179.037 462.027 179.037 462.027 179.037 462.027H179.037C179.037 462.027 179.037 462.027 179.037 462.027H179.037C179.037 462.027 179.037 462.027 179.037 462.027C179.037 462.027 179.037 462.027 179.037 462.027H179.037C179.037 462.027 179.037 462.027 179.037 462.027H179.037C179.037 462.027 179.037 462.027 179.037 462.027C179.037 462.027 179.037 462.027 179.037 462.027H179.037C179.037 462.027 179.037 462.027 179.037 462.027H179.037C179.037 462.027 179.037 462.027 179.037 462.027C179.037 462.027 179.037 462.027 179.037 462.027H179.037V466.027H179.037C179.037 466.027 179.037 466.027 179.037 466.027C179.037 466.027 179.037 466.027 179.037 466.027H179.037C179.037 466.027 179.037 466.027 179.037 466.027H179.037C179.037 466.027 179.037 466.027 179.037 466.027C179.037 466.027 179.037 466.027 179.037 466.027H179.037C179.037 466.027 179.037 466.027 179.037 466.027H179.037C179.037 466.027 179.037 466.027 179.037 466.027C179.037 466.027 179.037 466.027 179.037 466.027H179.037C179.037 466.027 179.037 466.027 179.037 466.027H179.037C179.037 466.027 179.037 466.027 179.037 466.027C179.037 466.027 179.037 466.027 179.037 466.027H179.037C179.037 466.027 179.037 466.027 179.037 466.027H179.037C179.037 466.027 179.037 466.027 179.037 466.027C179.037 466.027 179.037 466.027 179.037 466.027H179.037C179.037 466.027 179.037 466.027 179.037 466.027H179.037C179.037 466.027 179.037 466.027 179.037 466.027C179.037 466.027 179.037 466.027 179.037 466.027H179.037C179.037 466.027 179.037 466.027 179.037 466.027H179.037C179.037 466.027 179.037 466.027 179.037 466.027C179.037 466.027 179.037 466.027 179.037 466.027H179.037C179.037 466.027 179.037 466.027 179.037 466.027H179.037C179.037 466.027 179.037 466.027 179.037 466.027C179.037 466.027 179.037 466.027 179.037 466.027H179.037C179.037 466.027 179.037 466.027 179.037 466.027C179.037 466.027 179.037 466.027 179.037 466.027C179.037 466.027 179.037 466.027 179.037 466.027C179.037 466.027 179.037 466.027 179.037 466.027H179.037C179.037 466.027 179.037 466.027 179.037 466.027C179.037 466.027 179.037 466.027 179.037 466.027C179.037 466.027 179.037 466.027 179.037 466.027C179.037 466.027 179.037 466.027 179.037 466.027H179.037C179.037 466.027 179.037 466.027 179.037 466.027C179.037 466.027 179.037 466.027 179.037 466.027H179.037C179.037 466.027 179.037 466.027 179.037 466.027H179.037C179.037 466.027 179.037 466.027 179.037 466.027C179.037 466.027 179.037 466.027 179.037 466.027H179.037C179.037 466.027 179.037 466.027 179.037 466.027H179.037C179.037 466.027 179.037 466.027 179.037 466.027C179.037 466.027 179.037 466.027 179.037 466.027H179.038C179.038 466.027 179.038 466.027 179.038 466.027H179.038C179.038 466.027 179.038 466.027 179.038 466.027C179.038 466.027 179.038 466.027 179.038 466.027H179.038C179.038 466.027 179.038 466.027 179.038 466.027C179.038 466.027 179.038 466.027 179.038 466.027C179.038 466.027 179.038 466.027 179.038 466.027C179.038 466.027 179.038 466.027 179.038 466.027H179.038C179.038 466.027 179.038 466.027 179.038 466.027C179.038 466.027 179.038 466.027 179.038 466.027H179.038C179.038 466.027 179.038 466.027 179.038 466.027H179.038C179.038 466.027 179.038 466.027 179.038 466.027C179.038 466.027 179.038 466.027 179.038 466.027H179.038C179.038 466.027 179.038 466.027 179.038 466.027C179.038 466.027 179.038 466.027 179.038 466.027C179.038 466.027 179.038 466.027 179.038 466.027C179.038 466.027 179.038 466.027 179.038 466.027H179.038C179.038 466.027 179.038 466.027 179.038 466.027C179.038 466.027 179.038 466.027 179.038 466.027H179.038C179.038 466.027 179.038 466.027 179.038 466.027H179.038C179.038 466.027 179.038 466.027 179.038 466.027C179.038 466.027 179.038 466.027 179.038 466.027H179.038C179.038 466.027 179.038 466.027 179.038 466.027H179.038C179.038 466.027 179.038 466.027 179.038 466.027C179.038 466.027 179.038 466.027 179.038 466.027H179.038C179.038 466.027 179.038 466.027 179.038 466.027C179.038 466.027 179.038 466.027 179.038 466.027C179.038 466.027 179.038 466.027 179.038 466.027C179.038 466.027 179.038 466.027 179.038 466.027H179.038C179.038 466.027 179.038 466.027 179.038 466.027C179.038 466.027 179.038 466.027 179.038 466.027H179.038C179.038 466.027 179.038 466.027 179.038 466.027H179.038C179.038 466.027 179.038 466.027 179.038 466.027C179.038 466.027 179.038 466.027 179.038 466.027H179.038C179.038 466.027 179.038 466.027 179.038 466.027H179.038C179.038 466.027 179.038 466.027 179.038 466.027C179.038 466.027 179.038 466.027 179.038 466.027H179.038C179.038 466.027 179.038 466.027 179.038 466.027C179.038 466.027 179.038 466.027 179.038 466.027H179.038C179.038 466.027 179.038 466.027 179.038 466.027H179.038C179.038 466.027 179.038 466.027 179.038 466.027C179.038 466.027 179.038 466.027 179.038 466.027H179.038C179.038 466.027 179.038 466.027 179.038 466.027H179.038C179.038 466.027 179.038 466.027 179.038 466.027C179.038 466.027 179.038 466.027 179.038 466.027H179.038C179.038 466.027 179.038 466.027 179.038 466.027C179.038 466.027 179.038 466.027 179.038 466.027C179.038 466.027 179.038 466.027 179.038 466.027C179.038 466.027 179.038 466.027 179.038 466.027H179.038C179.038 466.027 179.038 466.027 179.038 466.027C179.038 466.027 179.038 466.027 179.038 466.027H179.038C179.038 466.027 179.038 466.027 179.038 466.027H179.038C179.038 466.027 179.038 466.027 179.038 466.027C179.038 466.027 179.038 466.027 179.038 466.027H179.038C179.038 466.027 179.038 466.027 179.038 466.027H179.038C179.038 466.027 179.038 466.027 179.038 466.027C179.038 466.027 179.038 466.027 179.038 466.027H179.038C179.038 466.027 179.038 466.027 179.038 466.027C179.038 466.027 179.038 466.027 179.038 466.027C179.038 466.027 179.038 466.027 179.038 466.027C179.038 466.027 179.038 466.027 179.038 466.027H179.038C179.038 466.027 179.038 466.027 179.038 466.027C179.038 466.027 179.038 466.027 179.038 466.027H179.038C179.038 466.027 179.038 466.027 179.038 466.027H179.038C179.038 466.027 179.038 466.027 179.038 466.027C179.038 466.027 179.038 466.027 179.038 466.027H179.038C179.038 466.027 179.038 466.027 179.038 466.027H179.038C179.038 466.027 179.038 466.027 179.038 466.027C179.038 466.027 179.038 466.027 179.038 466.027H179.038C179.038 466.027 179.038 466.027 179.038 466.027C179.038 466.027 179.038 466.027 179.038 466.027C179.038 466.027 179.038 466.027 179.038 466.027C179.038 466.027 179.038 466.027 179.038 466.027H179.038C179.038 466.027 179.038 466.027 179.038 466.027C179.038 466.027 179.038 466.027 179.038 466.027C179.038 466.027 179.038 466.027 179.038 466.027C179.038 466.027 179.038 466.027 179.038 466.027H179.038C179.038 466.027 179.038 466.027 179.038 466.027C179.038 466.027 179.038 466.027 179.038 466.027H179.038C179.038 466.027 179.038 466.027 179.038 466.027H179.038C179.038 466.027 179.038 466.027 179.038 466.027C179.038 466.027 179.038 466.027 179.038 466.027H179.038C179.038 466.027 179.038 466.027 179.038 466.027H179.038C179.038 466.027 179.038 466.027 179.038 466.027C179.038 466.027 179.038 466.027 179.038 466.027H179.038C179.038 466.027 179.038 466.027 179.038 466.027H179.038C179.038 466.027 179.038 466.027 179.038 466.027C179.038 466.027 179.038 466.027 179.038 466.027H179.039C179.039 466.027 179.039 466.027 179.039 466.027H179.039C179.039 466.027 179.039 466.027 179.039 466.027C179.039 466.027 179.039 466.027 179.039 466.027H179.039C179.039 466.027 179.039 466.027 179.039 466.027H179.039C179.039 466.027 179.039 466.027 179.039 466.027C179.039 466.027 179.039 466.027 179.039 466.027H179.039C179.039 466.027 179.039 466.027 179.039 466.027H179.039C179.039 466.027 179.039 466.027 179.039 466.027C179.039 466.027 179.039 466.027 179.039 466.027H179.039C179.039 466.027 179.039 466.027 179.039 466.027H179.039C179.039 466.027 179.039 466.027 179.039 466.027C179.039 466.027 179.039 466.027 179.039 466.027H179.039C179.039 466.027 179.039 466.027 179.039 466.027V462.027ZM177.037 464.027V464.028H181.037V464.027H177.037ZM179.037 462.028H100.655V466.028H179.037V462.028ZM102.655 464.028V464.028H98.6552V464.028H102.655Z" fill="#483E6B" mask="url(#path-17-inside-9_3244_19152)"/>
</svg>
