<svg width="130" height="130" viewBox="0 0 130 130" fill="none" xmlns="http://www.w3.org/2000/svg">
<path d="M59.2598 5.46008C62.9352 3.93767 67.0648 3.93767 70.7402 5.46008L103.042 18.84C106.718 20.3624 109.638 23.2825 111.16 26.9579L124.54 59.2598C126.062 62.9352 126.062 67.0648 124.54 70.7402L111.16 103.042C109.638 106.718 106.718 109.638 103.042 111.16L70.7402 124.54C67.0648 126.062 62.9352 126.062 59.2597 124.54L26.9579 111.16C23.2825 109.638 20.3624 106.718 18.84 103.042L5.46008 70.7402C3.93767 67.0648 3.93767 62.9352 5.46008 59.2597L18.84 26.9579C20.3624 23.2825 23.2825 20.3624 26.9579 18.84L59.2598 5.46008Z" fill="#CFC8F6" stroke="#6B6395" stroke-width="2" stroke-linejoin="bevel"/>
<path d="M60.4078 14.9022C63.3481 13.6842 66.6519 13.6842 69.5922 14.9022L97.1774 26.3283C100.118 27.5462 102.454 29.8823 103.672 32.8226L115.098 60.4078C116.316 63.3481 116.316 66.6519 115.098 69.5922L103.672 97.1774C102.454 100.118 100.118 102.454 97.1774 103.672L69.5922 115.098C66.6519 116.316 63.3481 116.316 60.4078 115.098L32.8226 103.672C29.8823 102.454 27.5462 100.118 26.3283 97.1774L14.9022 69.5922C13.6842 66.6519 13.6842 63.3481 14.9022 60.4078L26.3283 32.8226C27.5462 29.8823 29.8823 27.5462 32.8226 26.3283L60.4078 14.9022Z" fill="white" stroke="#6B6395" stroke-width="2" stroke-linejoin="bevel"/>
<path d="M60.4078 30.9022C63.3481 29.6842 66.6519 29.6842 69.5922 30.9022L85.8636 37.642C88.804 38.8599 91.1401 41.196 92.358 44.1364L99.0978 60.4078C100.316 63.3481 100.316 66.6519 99.0978 69.5922L92.358 85.8636C91.1401 88.804 88.804 91.1401 85.8636 92.358L69.5922 99.0978C66.6519 100.316 63.3481 100.316 60.4078 99.0978L44.1364 92.358C41.196 91.1401 38.8599 88.804 37.642 85.8636L30.9022 69.5922C29.6842 66.6519 29.6842 63.3481 30.9022 60.4078L37.642 44.1364C38.8599 41.196 41.196 38.8599 44.1364 37.642L60.4078 30.9022Z" fill="#EDFCE3" stroke="#6B6395" stroke-width="2" stroke-linejoin="bevel"/>
<path d="M64.0034 44.5728C64.6205 44.2181 65.3795 44.2181 65.9966 44.5728L74.1035 49.2323L82.1922 53.9233C82.8078 54.2804 83.1874 54.9378 83.1888 55.6495L83.207 65L83.1888 74.3505C83.1874 75.0622 82.8078 75.7196 82.1922 76.0767L74.1035 80.7677L65.9966 85.4272C65.3795 85.7819 64.6205 85.7819 64.0034 85.4272L55.8965 80.7677L47.8078 76.0767C47.1922 75.7196 46.8126 75.0622 46.8112 74.3505L46.793 65L46.8112 55.6495C46.8126 54.9378 47.1922 54.2804 47.8078 53.9233L55.8965 49.2323L64.0034 44.5728Z" fill="#CFC8F6" stroke="#6B6395" stroke-width="2"/>
<path d="M65.001 65L46.8145 54.5" stroke="#6B6395" stroke-width="2" stroke-linejoin="bevel"/>
<path d="M65 65V86" stroke="#6B6395" stroke-width="2" stroke-linejoin="bevel"/>
<path d="M71.1667 61.5001L53 51.0001L58.78 47.6667L77.581 57.8334V69.6377C77.581 69.8034 77.4467 69.9377 77.281 69.9377H74.6736C74.5888 69.9377 74.508 69.9736 74.4511 70.0364L71.6891 73.0893C71.5049 73.2929 71.1667 73.1626 71.1667 72.888V61.5001Z" fill="#EDFCE3" stroke="#6B6395" stroke-width="2"/>
<path d="M65 65.0001L83 54.6667" stroke="#6B6395" stroke-width="2" stroke-linejoin="bevel"/>
<path d="M58.5055 65.2264L53.4517 62.2647C53.2517 62.1475 53 62.2917 53 62.5235V65.1414C53 65.2479 53.0564 65.3464 53.1483 65.4002L58.2022 68.3619C58.4022 68.4791 58.6538 68.3349 58.6538 68.1031V65.4852C58.6538 65.3787 58.5974 65.2802 58.5055 65.2264Z" fill="white" stroke="#6B6395" stroke-width="2"/>
<path d="M35.9985 48.189C29.9766 47.0229 25.8817 47.2742 24.8626 49.2268C22.4754 53.8009 37.8697 65.9784 59.2469 76.4261C80.6241 86.8738 99.889 91.6353 102.276 87.0613C103.334 85.0343 100.9 81.5139 96.0003 77.3126" stroke="#6B6395" stroke-width="2"/>
</svg>
