<svg width="111" height="36" viewBox="0 0 111 36" fill="none" xmlns="http://www.w3.org/2000/svg">
<g clip-path="url(#clip0_3244_17241)">
<path fill-rule="evenodd" clip-rule="evenodd" d="M111 10.4348H105.764V8.86957H106.288L105.764 3.13043H107.335L108.382 8.86957L109.429 3.13043H111L110.476 8.86957H111V10.4348ZM105.764 1.04348H107.335V0H109.429V1.04348H111V2.6087H105.764V1.04348ZM110.476 27.6522C110.534 30.2452 108.906 30.2609 108.906 30.2609L110.476 31.8261V35.4783H106.811C106.811 35.4783 106.811 34.1739 106.811 32.8696C106.811 32.4574 106.492 31.8783 105.764 31.8261C105.036 31.7739 103.67 31.8261 103.67 31.8261V35.4783H100.528V24.5217C100.528 24.5217 106.283 24.4904 107.335 24.5217C108.387 24.553 110.435 25.8417 110.476 27.6522ZM103.67 27.1304V29.7391C103.67 29.7391 107.016 30.1252 106.984 28.5965C106.942 26.6557 103.665 27.1304 103.67 27.1304ZM104.193 3.65217H104.717V4.69565L104.193 5.21739C104.193 5.21739 104.214 6.74087 104.193 8.34783C104.183 8.95304 103.968 9.59478 103.67 9.91304C103.021 10.6017 101.575 10.4348 101.575 10.4348V9.91304C101.575 9.91304 101.926 9.76174 102.099 9.3913C102.329 8.90609 102.623 7.82609 102.623 7.82609L101.575 8.34783V6.78261L102.623 6.26087V2.6087H101.575V1.04348H102.623V0H104.193V1.04348H105.241V2.6087H104.193V3.65217ZM99.4811 10.4348H96.3396V0H100.528V8.34783C100.528 9.6313 100.057 10.4348 99.4811 10.4348ZM98.9576 1.56522H98.434V8.86957H98.9576V1.56522ZM95.2924 35.4783L94.7689 34.4348H91.6274L91.1038 35.4783H87.4387L91.6274 24.5217H95.2924L98.9576 35.4783H95.2924ZM93.1981 28.6957L92.1509 31.8261H94.2453L93.1981 28.6957ZM85.8679 2.6087H88.4858V1.56522H86.3915V0H94.7689V1.56522H92.6745V2.6087H94.7689V10.4348H85.8679V2.6087ZM91.1038 1.56522H90.0566V2.6087H91.1038V1.56522ZM93.1981 4.69565H92.1509V6.78261H93.1981V4.69565ZM87.9623 8.86957H92.6745V7.82609H91.1038V4.69565H90.0566V7.82609H88.4858V4.69565H87.9623V8.86957ZM83.7736 10.4348H80.1085V0H85.3443C85.3443 0 85.3443 4.26783 85.3443 6.26087C85.3443 10.6383 84.449 10.4348 83.7736 10.4348ZM83.7736 1.56522H82.2028V4.17391H83.7736V1.56522ZM83.7736 6.26087H82.2028V8.86957H83.7736V6.26087ZM80.1085 15.6522H76.967V23.4783H73.3019V15.6522H70.1604V12.5217H80.1085V15.6522ZM59.6887 12.5217H68.5896V15.1304H62.8302V16.6957H67.5424V19.3043H62.8302V20.8696H68.5896V23.4783H59.6887V12.5217ZM46.5991 7.82609L48.6934 5.73913L51.3113 8.34783L56.0236 3.65217L58.1179 5.73913L51.3113 12.5217L46.5991 7.82609ZM50.7877 18.7826L52.8821 12.5217H57.5943V23.4783H53.9292V18.7826H53.4057L52.3585 23.4783H49.7406L48.6934 18.7826H48.1698V23.4783H45.0283V12.5217H49.217L50.7877 18.7826ZM49.7406 24.5217C52.3742 24.5217 54.5942 26.2852 55.2801 28.6957H51.5469C51.1857 27.7617 50.5155 27.1304 49.7406 27.1304C48.5834 27.1304 47.6462 28.5339 47.6462 30.2609C47.6462 31.9878 48.5834 33.3913 49.7406 33.3913C50.5155 33.3913 51.1804 32.76 51.5469 31.8261H55.2801C54.5942 34.2313 52.3794 36 49.7406 36C46.5572 36 43.9811 33.433 43.9811 30.2609C43.9811 27.0887 46.5572 24.5217 49.7406 24.5217ZM22.5142 27.6522H29.3208V14.087H36.1274V34.4348H22.5142V27.6522ZM9.94811 21.913L13.0896 18.2609L16.2311 21.3913L22.5142 15.1304L26.1792 18.2609L16.2311 27.6522L9.94811 21.913ZM6.8066 27.6522H0V7.30435H13.6132V14.087H6.8066V27.6522ZM65.9717 27.6522H60.2123V28.6957H64.9245V31.3043H60.2123V32.8696H65.9717V35.4783H57.0708V24.5217H65.9717V27.6522ZM71.7311 32.8696H76.4434V35.4783H68.066V24.5217H71.7311V32.8696ZM84.2972 23.4783H81.1557L84.8208 12.5217H88.4858L92.1509 23.4783H88.4858L87.9623 22.4348H84.8208L84.2972 23.4783ZM87.4387 19.8261L86.3915 16.6957L85.3443 19.8261H87.4387ZM81.6792 32.8696H86.9151V35.4783H78.0142V24.5217H81.6792V32.8696Z" fill="#473E6B"/>
</g>
<defs>
<clipPath id="clip0_3244_17241">
<rect width="111" height="36" fill="white"/>
</clipPath>
</defs>
</svg>
