<svg width="149" height="36" viewBox="0 0 149 36" fill="none" xmlns="http://www.w3.org/2000/svg">
<g clip-path="url(#clip0_3244_17218)">
<path fill-rule="evenodd" clip-rule="evenodd" d="M14.5598 0L29.0924 14.5297L29.0651 21.4705L14.5053 6.91377L0.0545312 21.3625L0 14.5567L14.5598 0ZM42.2067 27.7361C41.1161 27.7361 40.1073 27.6011 39.262 27.358C38.3895 27.088 37.6806 26.6289 37.0808 25.9267C36.5082 25.2245 36.0447 24.2523 35.7448 22.9829C35.4448 21.6866 35.2812 20.0122 35.2812 17.9596C35.2812 15.9881 35.4448 14.3677 35.7448 13.0984C36.072 11.8291 36.5355 10.8568 37.1353 10.1546C37.7352 9.45246 38.4713 8.96634 39.3438 8.66926C40.2163 8.39919 41.1706 8.26416 42.2612 8.26416C43.5427 8.26416 44.6879 8.37219 45.724 8.56124C46.7873 8.75028 47.6053 8.93933 48.2324 9.15539V12.1261C47.7689 12.0181 47.06 11.9371 46.1057 11.8291C45.1787 11.721 44.1698 11.667 43.0519 11.667C42.3158 11.667 41.7159 11.7481 41.1979 11.9371C40.7071 12.0991 40.2981 12.3962 39.9709 12.8283C39.671 13.2604 39.4529 13.8816 39.2893 14.7188C39.153 15.556 39.0712 16.6093 39.0712 17.9596C39.0712 19.6881 39.1802 21.0114 39.3984 21.9026C39.6165 22.7939 40.0255 23.415 40.598 23.7661C41.1706 24.0902 41.9886 24.2523 43.0247 24.2523C44.3062 24.2523 45.3695 24.2252 46.2148 24.1712C47.0327 24.1172 47.7144 24.0632 48.2051 23.9822V26.9259C47.4962 27.169 46.651 27.358 45.6422 27.4931C44.6879 27.6821 43.5427 27.7361 42.2067 27.7361ZM58.0751 27.7361C56.7663 27.7361 55.6212 27.6281 54.6396 27.3851C53.658 27.115 52.8401 26.6559 52.1857 25.9807C51.5313 25.2785 51.0405 24.3063 50.6861 23.0369C50.3589 21.7676 50.1953 20.0932 50.1953 18.0407C50.1953 15.9881 50.3589 14.3407 50.6861 13.0444C51.0405 11.7481 51.5313 10.7488 52.1857 10.0736C52.8673 9.37144 53.6853 8.91233 54.6396 8.64226C55.6212 8.37219 56.7663 8.26416 58.0751 8.26416C59.3838 8.26416 60.529 8.39919 61.5105 8.64226C62.4921 8.91233 63.3101 9.37144 63.9644 10.0736C64.6188 10.7758 65.1096 11.7481 65.4368 13.0444C65.764 14.3137 65.9276 15.9881 65.9276 18.0407C65.9276 20.0932 65.764 21.7406 65.4368 23.0369C65.1096 24.3063 64.6188 25.3055 63.9644 25.9807C63.3101 26.6559 62.4921 27.115 61.4833 27.3851C60.5017 27.6281 59.3565 27.7361 58.0751 27.7361ZM58.0751 24.3063C58.8385 24.3063 59.4656 24.2252 59.9837 24.0632C60.529 23.9012 60.938 23.5771 61.2379 23.145C61.5378 22.6859 61.7832 22.0647 61.9195 21.2545C62.0558 20.4173 62.1376 19.364 62.1376 18.0407C62.1376 16.6903 62.0558 15.583 61.9195 14.7728C61.7832 13.9356 61.5651 13.2874 61.2379 12.8553C60.938 12.3962 60.5017 12.0991 59.9837 11.9641C59.4656 11.8021 58.8385 11.721 58.0751 11.721C57.3116 11.721 56.6845 11.8021 56.1665 11.9641C55.6757 12.1261 55.2394 12.4232 54.9123 12.8553C54.6123 13.2874 54.3669 13.9356 54.2034 14.7728C54.067 15.61 53.9852 16.6903 53.9852 18.0407C53.9852 19.337 54.0398 20.4173 54.1761 21.2545C54.3124 22.0647 54.5305 22.6859 54.8577 23.145C55.1576 23.6041 55.5939 23.9012 56.1119 24.0632C56.63 24.2252 57.2844 24.3063 58.0751 24.3063ZM68.873 8.45361V27.5745H72.7175V14.9623L80.7063 27.5745H83.7873V8.45361H79.9701V21.0658L71.9541 8.45361H68.873ZM86.9492 27.5745V12.8287C86.9492 11.6944 87.1673 10.8032 87.6309 10.155C88.0671 9.50688 88.6397 9.07477 89.3213 8.83171C90.003 8.56164 90.6573 8.45361 91.339 8.45361C91.9661 8.45361 92.7295 8.45361 93.6293 8.48062L93.793 8.48538C94.6717 8.51089 95.5987 8.5378 96.574 8.58865C97.6373 8.61565 98.6462 8.69668 99.6004 8.8047V12.0185H92.3751C91.8298 12.0185 91.448 12.1536 91.1481 12.4506C90.9027 12.7207 90.7664 13.0988 90.7664 13.5309V16.7987L98.3462 17.0148V20.0396L90.7937 20.2556V27.6015H86.9492V27.5745ZM103.172 26.5471C103.936 27.2223 105.054 27.5734 106.553 27.5734V27.6004H113.615V24.1435H107.562C107.044 24.1435 106.635 24.0355 106.308 23.7924C106.008 23.5493 105.845 23.1172 105.845 22.4691V8.47949H102.027V23.0632C102.027 24.6836 102.409 25.8449 103.172 26.5471ZM122.723 27.7095C121.659 27.7095 120.651 27.6285 119.751 27.4395C118.851 27.2504 118.06 26.9263 117.379 26.4942C116.697 26.0351 116.179 25.3869 115.797 24.5767C115.443 23.7395 115.252 22.6863 115.252 21.4169V8.45361H119.069V21.3899C119.069 22.4432 119.396 23.1724 120.023 23.6045C120.651 24.0366 121.55 24.2527 122.723 24.2527C123.868 24.2527 124.74 24.0366 125.395 23.6045C126.022 23.1724 126.349 22.4432 126.349 21.3899V8.45361H130.193V21.4169C130.193 22.6863 130.003 23.7395 129.621 24.5767C129.239 25.3869 128.721 26.0351 128.04 26.4942C127.358 26.9533 126.567 27.2504 125.667 27.4395C124.74 27.6285 123.759 27.7095 122.723 27.7095ZM137.692 17.9868L131.83 27.5743H136.083L139.737 21.2007L143.718 27.5743H147.971L142.109 18.2029L148.053 8.4534H143.827L140.091 14.9891L136.001 8.4534H131.748L137.692 17.9868ZM22.2214 21.4709L14.5325 29.1679L10.2518 24.8738L17.9407 17.1768L14.5325 13.7739L3.38086 24.9008L14.5052 36.0006L25.6568 24.8468L22.2214 21.4709Z" fill="#473E6B"/>
</g>
<defs>
<clipPath id="clip0_3244_17218">
<rect width="148.286" height="36" fill="white"/>
</clipPath>
</defs>
</svg>
