<svg width="130" height="130" viewBox="0 0 130 130" fill="none" xmlns="http://www.w3.org/2000/svg">
<path d="M58.9917 5.24413C63.1045 3.2635 67.8954 3.2635 72.0083 5.24413L109.334 23.2192C113.447 25.1999 116.434 28.9455 117.45 33.3959L126.668 73.7856C127.684 78.236 126.618 82.9068 123.772 86.4758L97.9417 118.866C95.0955 122.435 90.7791 124.513 86.2142 124.513H44.7858C40.2209 124.513 35.9045 122.435 33.0583 118.866L7.22816 86.4758C4.38202 82.9068 3.31594 78.2361 4.33172 73.7856L13.5504 33.396C14.5662 28.9455 17.5533 25.1999 21.6661 23.2192L58.9917 5.24413Z" fill="#CFC8F6" stroke="#6B6395" stroke-width="2" stroke-linejoin="bevel"/>
<path d="M59.442 17.2998C63.5824 15.2871 68.4176 15.2871 72.558 17.2998L100.085 30.6811C104.182 32.673 107.153 36.4194 108.157 40.8634L115.011 71.1733C116.01 75.5919 114.959 80.2254 112.15 83.7801L93.0156 108C90.1709 111.601 85.8345 113.702 81.2455 113.702H50.7545C46.1655 113.702 41.8291 111.601 38.9844 108L19.8498 83.7801C17.0415 80.2254 15.9901 75.5919 16.9892 71.1733L23.8426 40.8634C24.8474 36.4194 27.8176 32.673 31.9153 30.6811L59.442 17.2998Z" fill="white" stroke="#6B6395" stroke-width="2" stroke-linejoin="bevel"/>
<path d="M59.0624 34.166C63.1359 32.2304 67.8641 32.2304 71.9376 34.166L87.4095 41.5175C91.5436 43.4818 94.5545 47.2261 95.5861 51.6853L99.3279 67.8604C100.368 72.3565 99.2806 77.081 96.3797 80.6701L85.7959 93.7648C82.948 97.2883 78.6603 99.3358 74.1299 99.3358H56.8701C52.3397 99.3358 48.052 97.2883 45.2041 93.7648L34.6203 80.6701C31.7194 77.081 30.6321 72.3565 31.6722 67.8604L35.4139 51.6853C36.4455 47.2261 39.4564 43.4818 43.5905 41.5175L59.0624 34.166Z" fill="#EDFCE3" stroke="#6B6395" stroke-width="2" stroke-linejoin="bevel"/>
<path d="M73.1976 55H56.4864C55.7519 55 55.0764 55.4027 54.7271 56.0488L50.6184 63.6484C50.2424 64.3439 50.3113 65.1956 50.7944 65.8215L63.2588 81.9724C64.0536 83.0024 65.6048 83.0112 66.4113 81.9904L79.1592 65.8564C79.6669 65.2138 79.7316 64.3267 79.3225 63.6173L74.9301 56.0009C74.573 55.3816 73.9125 55 73.1976 55Z" fill="#CFC8F6" stroke="#6B6395" stroke-width="2" stroke-linecap="round" stroke-linejoin="round"/>
<circle cx="65" cy="66" r="3" fill="#CFC8F6" stroke="#6B6395" stroke-width="2"/>
<path d="M65 69L65 82" stroke="#6B6395" stroke-width="2" stroke-linecap="round" stroke-linejoin="round"/>
<rect x="55" y="49" width="19" height="6" rx="2" fill="#CFC8F6" stroke="#6B6395" stroke-width="2" stroke-linecap="round" stroke-linejoin="round"/>
<path d="M96.4994 54.9742C102.065 54.0145 105.848 54.3598 106.831 56.2524C109.21 60.8308 94.308 72.7301 73.5463 82.8303C52.7846 92.9305 34.0253 97.4068 31.6464 92.8285C30.6593 90.9289 32.6473 87.7689 36.7943 84.0001" stroke="#6B6395" stroke-width="2"/>
</svg>
