<svg width="130" height="130" viewBox="0 0 130 130" fill="none" xmlns="http://www.w3.org/2000/svg">
<path d="M57.5253 6.4495C62.1535 3.78947 67.8465 3.78947 72.4747 6.4495L92.2423 17.811L92.2457 17.813L111.969 29.2515C116.587 31.9296 119.433 36.8599 119.444 42.198L119.488 64.9981V65.0019L119.444 87.802C119.433 93.1401 116.587 98.0704 111.969 100.748L92.2457 112.187L92.2423 112.189L72.4747 123.55C67.8465 126.211 62.1535 126.211 57.5253 123.55L37.7577 112.189L37.7543 112.187L18.0311 100.748C13.4134 98.0704 10.5669 93.1401 10.5564 87.802L10.512 65.0019V64.9981L10.5564 42.198C10.5669 36.8599 13.4134 31.9296 18.0311 29.2515L37.7543 17.813L37.7577 17.811L57.5253 6.4495Z" fill="#CFC8F6" stroke="#6B6395" stroke-width="2"/>
<path d="M58.522 17.8767C62.533 15.5713 67.467 15.5713 71.478 17.8767L87.0403 26.8212L87.0437 26.8231L102.571 35.8282C106.573 38.1492 109.04 42.4222 109.049 47.0485L109.084 64.9981V65.0019L109.049 82.9515C109.04 87.5779 106.573 91.8508 102.571 94.1718L87.0437 103.177L87.0403 103.179L71.478 112.123C67.467 114.429 62.533 114.429 58.522 112.123L42.9597 103.179L42.9563 103.177L27.429 94.1718C23.427 91.8508 20.96 87.5779 20.951 82.9515L20.916 65.0019V64.9981L20.951 47.0485C20.96 42.4221 23.427 38.1492 27.429 35.8282L42.9563 26.8231L42.9597 26.8212L58.522 17.8767Z" fill="white" stroke="#6B6395" stroke-width="2"/>
<path d="M60.5152 32.7311C63.2921 31.135 66.7079 31.135 69.4848 32.7311L80.1043 38.8347L80.1077 38.8366L90.7033 44.9816C93.474 46.5884 95.1819 49.5466 95.1881 52.7495L95.212 64.9981V65.0019L95.1881 77.2505C95.1819 80.4534 93.474 83.4116 90.7033 85.0184L80.1077 91.1634L80.1043 91.1653L69.4848 97.2689C66.7079 98.865 63.2921 98.865 60.5152 97.2689L49.8957 91.1653L49.8923 91.1634L39.2967 85.0184C36.526 83.4116 34.8181 80.4534 34.8119 77.2505L34.788 65.0019V64.9981L34.8119 52.7495C34.8181 49.5466 36.5261 46.5884 39.2967 44.9816L49.8923 38.8366L49.8957 38.8347L60.5152 32.7311Z" fill="#EDFCE3" stroke="#6B6395" stroke-width="2"/>
<circle cx="79" cy="53" r="4" fill="#B6AFDD" stroke="#6B6395" stroke-width="2"/>
<path d="M83.9101 78H45.7531C44.1525 78 43.2003 76.2133 44.0929 74.8847L56.6396 56.2091C57.3823 55.1037 58.9776 55.0192 59.8328 56.04L68.1881 66.0129C68.9101 66.8746 70.2003 66.9722 71.0436 66.2288L74.0748 63.5571C74.9396 62.7948 76.268 62.9195 76.9759 63.8294L85.4887 74.7719C86.5107 76.0856 85.5745 78 83.9101 78Z" fill="#B6AFDD" stroke="#6B6395" stroke-width="2"/>
<path d="M95.0504 58C101.175 59.427 104.907 61.2894 104.961 63.3266C105.08 67.8188 87.2676 71.4604 65.1762 71.4604C43.0849 71.4604 25.0799 67.8188 24.9612 63.3266C24.9073 61.2894 28.5415 59.427 34.5902 58" stroke="#6B6395" stroke-width="2"/>
</svg>
