<svg width="430" height="130" viewBox="0 0 430 130" fill="none" xmlns="http://www.w3.org/2000/svg">
<g clip-path="url(#clip0_3244_18851)">
<rect x="212.936" y="1.5" width="54.081" height="87.1295" rx="1.5" fill="#B5AEFF" stroke="#483E6B"/>
<circle cx="3.12125" cy="3.12125" r="2.62125" transform="matrix(-1 0 0 1 247.469 29.6418)" fill="#FFF9F9" stroke="#483E6B"/>
<circle cx="3.12125" cy="3.12125" r="2.62125" transform="matrix(-1 0 0 1 258.703 40.8784)" fill="#FFF9F9" stroke="#483E6B"/>
<circle cx="3.12125" cy="3.12125" r="2.62125" transform="matrix(-1 0 0 1 243.721 40.8784)" fill="#FFF9F9" stroke="#483E6B"/>
<circle cx="3.12125" cy="3.12125" r="2.62125" transform="matrix(-1 0 0 1 249.963 53.3635)" fill="#FFF9F9" stroke="#483E6B"/>
<circle cx="3.12125" cy="3.12125" r="2.62125" transform="matrix(-1 0 0 1 229.988 48.3694)" fill="#FFF9F9" stroke="#483E6B"/>
<path d="M241.223 32.7632H236.853L229.986 43.9997H225.616" stroke="#483E6B" stroke-linecap="round" stroke-linejoin="round"/>
<path d="M252.461 44.624H243.721" stroke="#483E6B" stroke-linecap="round" stroke-linejoin="round"/>
<path d="M243.721 56.4847H238.102L233.108 51.4907H229.987" stroke="#483E6B" stroke-linecap="round" stroke-linejoin="round"/>
<circle cx="3.12125" cy="3.12125" r="2.62125" transform="matrix(-1 0 0 1 227.488 40.8784)" fill="#FFF9F9" stroke="#483E6B"/>
<rect x="185.395" y="31.2437" width="54.081" height="93.7393" rx="1.5" fill="#FEF3FF" stroke="#483E6B"/>
<rect x="121.5" y="85.2229" width="38.6583" height="38.6583" rx="3.5" fill="#EAC9F8" stroke="#483E6B"/>
<path fill-rule="evenodd" clip-rule="evenodd" d="M149.631 101.833C147.976 100.331 145.946 99.2904 143.749 98.8164C143.863 98.724 143.977 98.6248 144.087 98.5166C145.059 97.5585 145.404 96.348 144.858 95.8115C144.368 95.3291 143.325 95.5545 142.415 96.3007C142.244 94.9707 141.567 93.9766 140.757 93.9766C139.948 93.9766 139.268 94.9707 139.097 96.3007C138.182 95.5545 137.146 95.3291 136.654 95.8115C136.11 96.3503 136.453 97.5608 137.425 98.5166C137.537 98.6248 137.654 98.7262 137.768 98.8187C135.115 99.3971 132.72 100.796 130.93 102.811C129.141 104.826 128.052 107.352 127.822 110.02L127.611 112.484H130.893L131.083 110.293C131.284 107.962 132.365 105.79 134.113 104.207C135.861 102.624 138.148 101.746 140.522 101.747H141.011C143.384 101.746 145.672 102.624 147.419 104.207C149.167 105.789 150.248 107.962 150.447 110.293L150.637 112.484H153.921L153.713 110.02C153.444 106.882 151.986 103.959 149.631 101.833ZM137.557 105.887C136.907 105.887 136.379 106.812 136.379 107.952C136.379 109.093 136.907 110.017 137.557 110.017C138.206 110.017 138.735 109.093 138.735 107.952C138.735 106.812 138.206 105.887 137.557 105.887ZM142.797 107.952C142.797 106.812 143.325 105.887 143.975 105.887C144.624 105.887 145.152 106.812 145.152 107.952C145.152 109.093 144.624 110.017 143.975 110.017C143.325 110.017 142.797 109.093 142.797 107.952Z" fill="#B5AEFF"/>
<path d="M143.749 98.8164L143.434 98.4276L142.621 99.0847L143.643 99.3052L143.749 98.8164ZM149.631 101.833L149.295 102.203L149.296 102.204L149.631 101.833ZM144.087 98.5166L143.736 98.1605L143.736 98.1605L144.087 98.5166ZM144.858 95.8115L144.507 96.1676L144.508 96.1683L144.858 95.8115ZM142.415 96.3007L141.919 96.3646L142.035 97.2591L142.732 96.6874L142.415 96.3007ZM139.097 96.3007L138.781 96.6881L139.478 97.2565L139.593 96.3646L139.097 96.3007ZM136.654 95.8115L136.304 95.4546L136.303 95.4561L136.654 95.8115ZM137.425 98.5166L137.074 98.8731L137.078 98.8762L137.425 98.5166ZM137.768 98.8187L137.875 99.3072L138.893 99.085L138.082 98.4297L137.768 98.8187ZM130.93 102.811L130.557 102.479L130.557 102.479L130.93 102.811ZM127.822 110.02L127.324 109.977L127.324 109.977L127.822 110.02ZM127.611 112.484L127.113 112.441L127.067 112.984H127.611V112.484ZM130.893 112.484V112.984H131.352L131.391 112.527L130.893 112.484ZM131.083 110.293L131.581 110.336L131.581 110.336L131.083 110.293ZM134.113 104.207L133.777 103.836L133.777 103.836L134.113 104.207ZM140.522 101.747L140.521 102.247H140.522V101.747ZM141.011 101.747V102.247H141.011L141.011 101.747ZM147.419 104.207L147.084 104.577L147.419 104.207ZM150.447 110.293L149.949 110.335L149.949 110.336L150.447 110.293ZM150.637 112.484L150.139 112.527L150.178 112.984H150.637V112.484ZM153.921 112.484V112.984H154.465L154.419 112.442L153.921 112.484ZM153.713 110.02L154.211 109.978L154.211 109.977L153.713 110.02ZM143.643 99.3052C145.755 99.7608 147.705 100.761 149.295 102.203L149.967 101.462C148.246 99.9016 146.137 98.8201 143.854 98.3276L143.643 99.3052ZM143.736 98.1605C143.641 98.2542 143.54 98.3424 143.434 98.4276L144.063 99.2052C144.186 99.1056 144.314 98.9954 144.438 98.8727L143.736 98.1605ZM144.508 96.1683C144.592 96.2516 144.677 96.461 144.561 96.8689C144.449 97.2603 144.173 97.73 143.736 98.1605L144.438 98.8727C144.973 98.3451 145.355 97.7306 145.523 97.143C145.685 96.572 145.67 95.9079 145.208 95.4547L144.508 96.1683ZM142.732 96.6874C143.139 96.3541 143.555 96.1549 143.895 96.0852C144.245 96.0134 144.428 96.09 144.507 96.1676L145.209 95.4554C144.798 95.0507 144.215 94.9987 143.694 95.1056C143.162 95.2145 142.602 95.5011 142.098 95.914L142.732 96.6874ZM140.757 94.4766C140.94 94.4766 141.178 94.589 141.417 94.9276C141.651 95.2615 141.841 95.7606 141.919 96.3646L142.911 96.2367C142.817 95.5107 142.583 94.8478 142.234 94.3521C141.889 93.8612 141.384 93.4766 140.757 93.4766V94.4766ZM139.593 96.3646C139.67 95.7609 139.861 95.2619 140.096 94.928C140.335 94.5892 140.574 94.4766 140.757 94.4766V93.4766C140.131 93.4766 139.625 93.8609 139.279 94.3517C138.93 94.8474 138.695 95.5104 138.601 96.2367L139.593 96.3646ZM137.004 96.1684C137.085 96.0894 137.268 96.0136 137.616 96.0852C137.955 96.1548 138.371 96.354 138.781 96.6881L139.413 95.9132C138.908 95.5012 138.348 95.2146 137.817 95.1056C137.296 94.9985 136.715 95.0512 136.304 95.4546L137.004 96.1684ZM137.776 98.1601C137.339 97.731 137.063 97.2621 136.952 96.8709C136.836 96.4633 136.92 96.2517 137.006 96.1669L136.303 95.4561C135.844 95.91 135.828 96.5732 135.99 97.1445C136.157 97.7321 136.539 98.3464 137.074 98.8731L137.776 98.1601ZM138.082 98.4297C137.978 98.3451 137.872 98.2534 137.772 98.1569L137.078 98.8762C137.202 98.9962 137.33 99.1073 137.454 99.2076L138.082 98.4297ZM131.304 103.143C133.023 101.208 135.325 99.8633 137.875 99.3072L137.661 98.3301C134.906 98.931 132.417 100.384 130.557 102.479L131.304 103.143ZM128.32 110.063C128.541 107.503 129.586 105.078 131.304 103.143L130.557 102.479C128.696 104.574 127.563 107.201 127.324 109.977L128.32 110.063ZM128.11 112.526L128.32 110.062L127.324 109.977L127.113 112.441L128.11 112.526ZM130.893 111.984H127.611V112.984H130.893V111.984ZM130.585 110.25L130.395 112.441L131.391 112.527L131.581 110.336L130.585 110.25ZM133.777 103.836C131.937 105.503 130.796 107.792 130.585 110.25L131.581 110.336C131.771 108.131 132.793 106.076 134.449 104.578L133.777 103.836ZM140.522 101.247C138.025 101.246 135.618 102.17 133.777 103.836L134.449 104.578C136.104 103.079 138.271 102.246 140.521 102.247L140.522 101.247ZM141.011 101.247H140.522V102.247H141.011V101.247ZM147.755 103.836C145.914 102.169 143.507 101.246 141.011 101.247L141.011 102.247C143.261 102.246 145.429 103.078 147.084 104.577L147.755 103.836ZM150.945 110.25C150.735 107.792 149.595 105.503 147.755 103.836L147.084 104.577C148.738 106.076 149.76 108.131 149.949 110.335L150.945 110.25ZM151.135 112.441L150.945 110.25L149.949 110.336L150.139 112.527L151.135 112.441ZM153.921 111.984H150.637V112.984H153.921V111.984ZM153.215 110.062L153.423 112.526L154.419 112.442L154.211 109.978L153.215 110.062ZM149.296 102.204C151.558 104.246 152.957 107.052 153.215 110.063L154.211 109.977C153.931 106.712 152.415 103.672 149.966 101.461L149.296 102.204ZM136.879 107.952C136.879 107.453 136.996 107.025 137.158 106.74C137.33 106.44 137.489 106.387 137.557 106.387V105.387C136.975 105.387 136.545 105.797 136.29 106.244C136.026 106.706 135.879 107.311 135.879 107.952H136.879ZM137.557 109.517C137.489 109.517 137.33 109.464 137.158 109.165C136.996 108.879 136.879 108.452 136.879 107.952H135.879C135.879 108.594 136.026 109.198 136.29 109.66C136.545 110.108 136.975 110.517 137.557 110.517V109.517ZM138.235 107.952C138.235 108.452 138.118 108.879 137.955 109.165C137.784 109.464 137.624 109.517 137.557 109.517V110.517C138.139 110.517 138.568 110.108 138.823 109.66C139.087 109.198 139.235 108.594 139.235 107.952H138.235ZM137.557 106.387C137.624 106.387 137.784 106.44 137.955 106.74C138.118 107.025 138.235 107.453 138.235 107.952H139.235C139.235 107.311 139.087 106.706 138.823 106.244C138.568 105.797 138.139 105.387 137.557 105.387V106.387ZM143.975 105.387C143.393 105.387 142.963 105.797 142.708 106.244C142.444 106.706 142.297 107.311 142.297 107.952H143.297C143.297 107.453 143.414 107.025 143.576 106.74C143.748 106.44 143.907 106.387 143.975 106.387V105.387ZM145.652 107.952C145.652 107.311 145.505 106.706 145.241 106.244C144.986 105.797 144.557 105.387 143.975 105.387V106.387C144.042 106.387 144.202 106.44 144.373 106.74C144.536 107.025 144.652 107.453 144.652 107.952H145.652ZM143.975 110.517C144.557 110.517 144.986 110.108 145.241 109.66C145.505 109.198 145.652 108.594 145.652 107.952H144.652C144.652 108.452 144.536 108.879 144.373 109.165C144.202 109.464 144.042 109.517 143.975 109.517V110.517ZM142.297 107.952C142.297 108.594 142.444 109.198 142.708 109.66C142.963 110.108 143.393 110.517 143.975 110.517V109.517C143.907 109.517 143.748 109.464 143.576 109.165C143.414 108.879 143.297 108.452 143.297 107.952H142.297Z" fill="#483E6B"/>
<rect x="275.088" y="76.5" width="33" height="33" rx="3.5" fill="#EDFCE3" stroke="#483E6B"/>
<rect x="149.041" y="16.9226" width="29.8453" height="29.8453" rx="1.5" fill="#FFECD5" stroke="#483E6B"/>
<mask id="path-17-inside-1_3244_18851" fill="white">
<path fill-rule="evenodd" clip-rule="evenodd" d="M162.76 23.0322C162.208 23.0322 161.76 23.4799 161.76 24.0322V38.5565C161.76 39.1088 162.208 39.5565 162.76 39.5565H165.166C165.719 39.5565 166.166 39.1088 166.166 38.5565V24.0322C166.166 23.4799 165.719 23.0322 165.166 23.0322H162.76ZM168.369 28.4386C168.369 27.8863 168.817 27.4386 169.369 27.4386H171.775C172.328 27.4386 172.775 27.8863 172.775 28.4386V38.5564C172.775 39.1087 172.328 39.5564 171.775 39.5564H169.369C168.817 39.5564 168.369 39.1087 168.369 38.5564V28.4386ZM155.15 31.7436C155.15 31.1913 155.598 30.7436 156.15 30.7436H158.557C159.109 30.7436 159.557 31.1913 159.557 31.7436V38.5565C159.557 39.1088 159.109 39.5565 158.557 39.5565H156.15C155.598 39.5565 155.15 39.1088 155.15 38.5565V31.7436Z"/>
</mask>
<path fill-rule="evenodd" clip-rule="evenodd" d="M162.76 23.0322C162.208 23.0322 161.76 23.4799 161.76 24.0322V38.5565C161.76 39.1088 162.208 39.5565 162.76 39.5565H165.166C165.719 39.5565 166.166 39.1088 166.166 38.5565V24.0322C166.166 23.4799 165.719 23.0322 165.166 23.0322H162.76ZM168.369 28.4386C168.369 27.8863 168.817 27.4386 169.369 27.4386H171.775C172.328 27.4386 172.775 27.8863 172.775 28.4386V38.5564C172.775 39.1087 172.328 39.5564 171.775 39.5564H169.369C168.817 39.5564 168.369 39.1087 168.369 38.5564V28.4386ZM155.15 31.7436C155.15 31.1913 155.598 30.7436 156.15 30.7436H158.557C159.109 30.7436 159.557 31.1913 159.557 31.7436V38.5565C159.557 39.1088 159.109 39.5565 158.557 39.5565H156.15C155.598 39.5565 155.15 39.1088 155.15 38.5565V31.7436Z" fill="#B5AEFF"/>
<path d="M162.76 24.0322V24.0322V22.0322C161.655 22.0322 160.76 22.9277 160.76 24.0322H162.76ZM162.76 38.5565V24.0322H160.76V38.5565H162.76ZM162.76 38.5565H162.76H160.76C160.76 39.6611 161.655 40.5565 162.76 40.5565V38.5565ZM165.166 38.5565H162.76V40.5565H165.166V38.5565ZM165.166 38.5565V40.5565C166.271 40.5565 167.166 39.6611 167.166 38.5565H165.166ZM165.166 24.0322V38.5565H167.166V24.0322H165.166ZM165.166 24.0322V24.0322H167.166C167.166 22.9277 166.271 22.0322 165.166 22.0322V24.0322ZM162.76 24.0322H165.166V22.0322H162.76V24.0322ZM169.369 26.4386C168.264 26.4386 167.369 27.334 167.369 28.4386H169.369V28.4386V26.4386ZM171.775 26.4386H169.369V28.4386H171.775V26.4386ZM173.775 28.4386C173.775 27.334 172.88 26.4386 171.775 26.4386V28.4386H173.775ZM173.775 38.5564V28.4386H171.775V38.5564H173.775ZM171.775 40.5564C172.88 40.5564 173.775 39.661 173.775 38.5564H171.775V38.5564V40.5564ZM169.369 40.5564H171.775V38.5564H169.369V40.5564ZM167.369 38.5564C167.369 39.661 168.264 40.5564 169.369 40.5564V38.5564V38.5564H167.369ZM167.369 28.4386V38.5564H169.369V28.4386H167.369ZM156.15 29.7436C155.046 29.7436 154.15 30.639 154.15 31.7436H156.15V29.7436ZM158.557 29.7436H156.15V31.7436H158.557V29.7436ZM160.557 31.7436C160.557 30.639 159.661 29.7436 158.557 29.7436V31.7436H158.557H160.557ZM160.557 38.5565V31.7436H158.557V38.5565H160.557ZM158.557 40.5565C159.661 40.5565 160.557 39.6611 160.557 38.5565H158.557H158.557V40.5565ZM156.15 40.5565H158.557V38.5565H156.15V40.5565ZM154.15 38.5565C154.15 39.6611 155.046 40.5565 156.15 40.5565V38.5565H156.15H154.15ZM154.15 31.7436V38.5565H156.15V31.7436H154.15Z" fill="#483E6B" mask="url(#path-17-inside-1_3244_18851)"/>
<path d="M185.395 32.7437C185.395 31.9152 186.066 31.2437 186.895 31.2437H237.975C238.804 31.2437 239.475 31.9152 239.475 32.7437V39.0566H185.395V32.7437Z" fill="#EAC9F8" stroke="#483E6B"/>
<path d="M189.301 34.0486L191.504 36.2521" stroke="#483E6B" stroke-linecap="round" stroke-linejoin="round"/>
<path d="M191.504 34.0486L189.3 36.2521" stroke="#483E6B" stroke-linecap="round" stroke-linejoin="round"/>
<path d="M185.395 114.967H239.475V123.483C239.475 124.311 238.804 124.983 237.975 124.983H186.895C186.066 124.983 185.395 124.311 185.395 123.483V114.967Z" fill="#EAC9F8" stroke="#483E6B"/>
<rect x="190.902" y="54.3777" width="43.0648" height="4.5081" fill="#EAC9F8" stroke="#483E6B"/>
<rect x="190.902" y="63.1907" width="43.0648" height="4.5081" fill="#EAC9F8" stroke="#483E6B"/>
<circle cx="212.436" cy="119.975" r="2.80486" fill="#B5AEFF" stroke="#483E6B"/>
<circle cx="239.588" cy="89" r="13.5" fill="#B5AEFF" stroke="#483E6B"/>
<path d="M231.09 92.0977C231.09 92.0979 231.09 92.098 231.59 92.0804L231.09 92.098L231.095 92.2583L231.193 92.3854C232.076 93.5323 233.176 94.0653 234.049 94.3097C234.485 94.4318 234.867 94.4828 235.142 94.5033C235.279 94.5135 235.391 94.5162 235.471 94.5162C235.511 94.5162 235.542 94.5155 235.565 94.5147L235.593 94.5136L235.602 94.5132L235.605 94.513L235.606 94.5129L235.607 94.5129C235.607 94.5129 235.607 94.5128 235.576 94.0138L235.607 94.5128L235.831 94.4988L235.969 94.3226L236.783 93.2869L236.936 93.0918C237.637 93.2529 238.432 93.363 239.299 93.363C240.166 93.363 240.962 93.2529 241.663 93.0918L241.816 93.2869L242.629 94.3226L242.767 94.4988L242.991 94.5128L243.022 94.0138C242.991 94.5128 242.991 94.5129 242.991 94.5129L242.992 94.5129L242.993 94.513L242.996 94.5132L243.005 94.5136L243.033 94.5147C243.056 94.5155 243.088 94.5162 243.128 94.5162C243.207 94.5162 243.319 94.5135 243.457 94.5033C243.732 94.4828 244.113 94.4318 244.549 94.3097C245.422 94.0653 246.522 93.5323 247.405 92.3854L247.503 92.2583L247.509 92.098L247.009 92.0804C247.509 92.098 247.509 92.0979 247.509 92.0977L247.509 92.0973L247.509 92.0962L247.509 92.0931L247.509 92.083L247.51 92.0474C247.51 92.017 247.511 91.9733 247.511 91.9171C247.51 91.8046 247.507 91.6418 247.497 91.4346C247.478 91.0203 247.43 90.4279 247.32 89.7047C247.099 88.2592 246.627 86.2852 245.616 84.1658L245.564 84.0576L245.469 83.9845L245.165 84.381C245.469 83.9845 245.469 83.9845 245.469 83.9844L245.469 83.9842L245.468 83.9837L245.466 83.9823L245.461 83.9782L245.442 83.9643C245.427 83.9527 245.404 83.9364 245.376 83.9161C245.319 83.8755 245.237 83.8188 245.133 83.7512C244.926 83.6163 244.63 83.437 244.27 83.2565C243.557 82.8992 242.558 82.5192 241.485 82.5001L241.272 82.4963L241.121 82.6472L240.927 82.8429L240.649 83.1218C240.223 83.0708 239.771 83.0409 239.299 83.0409C238.827 83.0409 238.376 83.0708 237.949 83.1218L237.672 82.8429L237.477 82.6472L237.327 82.4963L237.114 82.5001C236.04 82.5192 235.041 82.8992 234.328 83.2565C233.968 83.437 233.672 83.6163 233.465 83.7512C233.361 83.8188 233.28 83.8755 233.223 83.9161C233.194 83.9364 233.172 83.9527 233.156 83.9643L233.138 83.9782L233.132 83.9823L233.13 83.9837L233.13 83.9842L233.13 83.9844C233.129 83.9845 233.129 83.9845 233.434 84.381L233.129 83.9845L233.034 84.0576L232.983 84.1658C231.972 86.2852 231.499 88.2592 231.279 89.7047C231.168 90.4279 231.121 91.0203 231.101 91.4346C231.091 91.6418 231.088 91.8046 231.088 91.9171C231.088 91.9733 231.088 92.017 231.089 92.0474L231.089 92.083L231.09 92.0931L231.09 92.0962L231.09 92.0973L231.09 92.0977ZM237.768 89.3572L237.768 89.3572V89.3643C237.768 89.9281 237.353 90.3259 236.928 90.3259C236.517 90.3259 236.099 89.931 236.099 89.3643C236.099 88.7859 236.506 88.4027 236.928 88.4027C237.361 88.4027 237.776 88.797 237.768 89.3572ZM241.705 88.4027C242.132 88.4027 242.545 88.7917 242.545 89.3643C242.545 89.9281 242.13 90.3259 241.705 90.3259C241.294 90.3259 240.876 89.931 240.876 89.3643C240.876 88.7859 241.283 88.4027 241.705 88.4027Z" fill="#EDFCE3" stroke="#483E6B"/>
<path d="M185.013 75.123H133.773V59.7512" stroke="#6B6395" stroke-linecap="round" stroke-linejoin="round"/>
<path d="M129.958 40.8928L133.785 38.6934L137.612 40.8928L137.613 40.8938L141.431 43.1081L141.44 47.5217V47.5237L141.431 51.9374L137.613 54.1517L137.612 54.1526L133.785 56.352L129.958 54.1526L129.957 54.1517L126.139 51.9374L126.13 47.5237V47.5217L126.139 43.1081L129.957 40.8938L129.958 40.8928Z" fill="#B5AEFF" stroke="#483E6B"/>
<path d="M133.912 38.7324V47.3562" stroke="#483E6B"/>
<path d="M126.247 51.0498C126.006 51.1846 125.925 51.4863 126.066 51.7235C126.208 51.9608 126.518 52.0438 126.759 51.9089L126.247 51.0498ZM133.643 46.9113L126.247 51.0498L126.759 51.9089L134.154 47.7704L133.643 46.9113Z" fill="#483E6B"/>
<path d="M133.912 47.3408L141.308 51.4794" stroke="#483E6B"/>
<path d="M262.298 118.954L264.695 117.577L267.092 118.954L267.093 118.955L269.485 120.342L269.49 123.106V123.108L269.485 125.873L267.093 127.259L267.092 127.26L264.695 128.638L262.298 127.26L262.297 127.259L259.906 125.873L259.9 123.108V123.106L259.906 120.342L262.298 118.955L262.298 118.954Z" fill="#FFECD5" stroke="#483E6B"/>
<path d="M264.777 117.401V123" stroke="#483E6B"/>
<path d="M259.712 125.248C259.471 125.382 259.39 125.684 259.531 125.921C259.673 126.159 259.982 126.242 260.223 126.107L259.712 125.248ZM264.514 122.56L259.712 125.248L260.223 126.107L265.025 123.42L264.514 122.56Z" fill="#483E6B"/>
<path d="M264.777 122.99L269.579 125.677" stroke="#483E6B"/>
<path fill-rule="evenodd" clip-rule="evenodd" d="M256 12C254.895 12 254 12.8954 254 14V24.8001V26.7785V36.7847L262.006 28.7785H277.567C278.672 28.7785 279.567 27.883 279.567 26.7785V14C279.567 12.8954 278.672 12 277.567 12H256Z" fill="white"/>
<path d="M254 36.7847H253.5C253.5 36.9869 253.622 37.1692 253.809 37.2466C253.995 37.324 254.211 37.2812 254.354 37.1382L254 36.7847ZM262.006 28.7785V28.2785C261.874 28.2785 261.746 28.3312 261.653 28.4249L262.006 28.7785ZM254.5 14C254.5 13.1716 255.172 12.5 256 12.5V11.5C254.619 11.5 253.5 12.6193 253.5 14H254.5ZM254.5 24.8001V14H253.5V24.8001H254.5ZM254.5 26.7785V24.8001H253.5V26.7785H254.5ZM254.5 36.7847V26.7785H253.5V36.7847H254.5ZM261.653 28.4249L253.646 36.4311L254.354 37.1382L262.36 29.132L261.653 28.4249ZM277.567 28.2785H262.006V29.2785H277.567V28.2785ZM279.067 26.7785C279.067 27.6069 278.396 28.2785 277.567 28.2785V29.2785C278.948 29.2785 280.067 28.1592 280.067 26.7785H279.067ZM279.067 14V26.7785H280.067V14H279.067ZM277.567 12.5C278.396 12.5 279.067 13.1716 279.067 14H280.067C280.067 12.6193 278.948 11.5 277.567 11.5V12.5ZM256 12.5H277.567V11.5H256V12.5Z" fill="#483E6B"/>
<mask id="path-39-inside-2_3244_18851" fill="white">
<path fill-rule="evenodd" clip-rule="evenodd" d="M258 20.5C258 21.8807 259.119 23 260.5 23C261.881 23 263 21.8807 263 20.5C263 19.1193 261.881 18 260.5 18C259.119 18 258 19.1193 258 20.5ZM265 20.5C265 21.8807 266.119 23 267.5 23C268.881 23 270 21.8807 270 20.5C270 19.1193 268.881 18 267.5 18C266.119 18 265 19.1193 265 20.5ZM274.5 23C273.119 23 272 21.8807 272 20.5C272 19.1193 273.119 18 274.5 18C275.881 18 277 19.1193 277 20.5C277 21.8807 275.881 23 274.5 23Z"/>
</mask>
<path fill-rule="evenodd" clip-rule="evenodd" d="M258 20.5C258 21.8807 259.119 23 260.5 23C261.881 23 263 21.8807 263 20.5C263 19.1193 261.881 18 260.5 18C259.119 18 258 19.1193 258 20.5ZM265 20.5C265 21.8807 266.119 23 267.5 23C268.881 23 270 21.8807 270 20.5C270 19.1193 268.881 18 267.5 18C266.119 18 265 19.1193 265 20.5ZM274.5 23C273.119 23 272 21.8807 272 20.5C272 19.1193 273.119 18 274.5 18C275.881 18 277 19.1193 277 20.5C277 21.8807 275.881 23 274.5 23Z" fill="#EAC9F8"/>
<path d="M260.5 22C259.672 22 259 21.3284 259 20.5H257C257 22.433 258.567 24 260.5 24V22ZM262 20.5C262 21.3284 261.328 22 260.5 22V24C262.433 24 264 22.433 264 20.5H262ZM260.5 19C261.328 19 262 19.6716 262 20.5H264C264 18.567 262.433 17 260.5 17V19ZM259 20.5C259 19.6716 259.672 19 260.5 19V17C258.567 17 257 18.567 257 20.5H259ZM267.5 22C266.672 22 266 21.3284 266 20.5H264C264 22.433 265.567 24 267.5 24V22ZM269 20.5C269 21.3284 268.328 22 267.5 22V24C269.433 24 271 22.433 271 20.5H269ZM267.5 19C268.328 19 269 19.6716 269 20.5H271C271 18.567 269.433 17 267.5 17V19ZM266 20.5C266 19.6716 266.672 19 267.5 19V17C265.567 17 264 18.567 264 20.5H266ZM271 20.5C271 22.433 272.567 24 274.5 24V22C273.672 22 273 21.3284 273 20.5H271ZM274.5 17C272.567 17 271 18.567 271 20.5H273C273 19.6716 273.672 19 274.5 19V17ZM278 20.5C278 18.567 276.433 17 274.5 17V19C275.328 19 276 19.6716 276 20.5H278ZM274.5 24C276.433 24 278 22.433 278 20.5H276C276 21.3284 275.328 22 274.5 22V24Z" fill="#483E6B" mask="url(#path-39-inside-2_3244_18851)"/>
<g clip-path="url(#clip1_3244_18851)">
<path d="M290.311 83.4382L289.949 83.077L289.596 83.4458L287.679 85.4458L287.679 85.4457L287.67 85.4554L287.403 85.7501H284.249H283.749V86.2501V89.293L283.478 89.5632L283.478 89.5631L283.471 89.5705L281.471 91.6538L281.132 92.0072L281.478 92.3536L283.52 94.3953L283.79 94.6655V97.7917V98.2917H284.29H287.417L287.687 98.562L289.645 100.52L290.013 100.889L290.366 100.506L292.318 98.3881L292.581 98.1251H295.707H296.207V97.6251V94.4989L296.477 94.2286L298.436 92.2703L298.789 91.9167L298.436 91.5632L296.477 89.6049L296.207 89.3346V86.2084V85.7084H295.707H292.581L292.311 85.4382L290.311 83.4382Z" fill="#B5AEFF" stroke="#483E6B"/>
<path d="M293.751 89.875C293.459 89.5833 293.001 89.5833 292.709 89.875L289.542 93.0417L288.126 91.625C287.834 91.3333 287.376 91.3333 287.084 91.625C286.792 91.9167 286.792 92.375 287.084 92.6667L289.001 94.5833C289.167 94.75 289.417 94.8333 289.667 94.7917C289.792 94.75 289.917 94.7083 290.042 94.5833L293.709 90.9167C294.001 90.625 294.001 90.1667 293.751 89.875Z" fill="#483E6B"/>
</g>
</g>
<defs>
<clipPath id="clip0_3244_18851">
<rect width="430" height="130" fill="white"/>
</clipPath>
<clipPath id="clip1_3244_18851">
<rect width="20" height="20" fill="white" transform="translate(280 82)"/>
</clipPath>
</defs>
</svg>
