<svg width="430" height="130" viewBox="0 0 430 130" fill="none" xmlns="http://www.w3.org/2000/svg">
<rect x="143.5" y="7.5" width="145.612" height="114.473" rx="5.5" fill="#483E6B" stroke="#483E6B"/>
<rect x="139.5" y="3.5" width="145.612" height="114.473" rx="5.5" fill="#EDFCE3" stroke="#483E6B"/>
<path d="M139.5 9C139.5 5.96244 141.962 3.5 145 3.5H279.612C282.65 3.5 285.112 5.96243 285.112 9V25.8541H139.5V9Z" fill="#B5AEFF" stroke="#483E6B"/>
<rect x="157.664" y="51.5056" width="109.283" height="19.7592" rx="1.5" fill="white" stroke="#483E6B"/>
<circle cx="150.703" cy="15.0959" r="3.59588" fill="#FDCFCF" stroke="#483E6B"/>
<circle cx="162.99" cy="15.0959" r="3.59588" fill="#FFFAEA" stroke="#483E6B"/>
<circle cx="174.694" cy="15.0959" r="3.59588" fill="#E8FAD9" stroke="#483E6B"/>
<rect x="261.752" y="92.0242" width="35.3286" height="35.3286" rx="3.5" fill="#EAC9F8" stroke="#483E6B"/>
<path d="M269.316 103.966C269.393 103.83 269.521 103.73 269.672 103.688C269.823 103.647 269.984 103.667 270.12 103.744C270.256 103.821 270.356 103.949 270.398 104.1C270.439 104.251 270.419 104.412 270.342 104.548C269.34 106.315 268.801 108.345 268.801 110.461C268.801 110.767 268.812 111.074 268.835 111.379C268.846 111.535 268.795 111.689 268.693 111.808C268.591 111.926 268.446 111.999 268.29 112.011C268.134 112.023 267.98 111.972 267.861 111.87C267.743 111.767 267.67 111.622 267.658 111.466C267.633 111.132 267.621 110.796 267.621 110.461C267.621 108.14 268.213 105.91 269.316 103.966ZM290.745 113.972C290.704 114.123 290.605 114.251 290.469 114.329C290.333 114.406 290.172 114.427 290.021 114.386C289.87 114.345 289.742 114.245 289.664 114.109C289.586 113.974 289.566 113.812 289.607 113.661C289.888 112.631 290.032 111.556 290.032 110.461C290.032 108.153 289.392 105.95 288.212 104.082C288.133 103.95 288.11 103.792 288.146 103.643C288.182 103.494 288.274 103.364 288.404 103.282C288.534 103.2 288.69 103.172 288.841 103.204C288.991 103.235 289.123 103.324 289.208 103.452C290.508 105.508 291.211 107.93 291.211 110.461C291.211 111.662 291.053 112.84 290.745 113.972ZM287.467 101.276C287.523 101.33 287.568 101.395 287.599 101.467C287.63 101.539 287.647 101.616 287.648 101.694C287.648 101.773 287.634 101.85 287.604 101.923C287.575 101.995 287.531 102.061 287.476 102.117C287.421 102.172 287.355 102.216 287.282 102.246C287.21 102.276 287.132 102.291 287.054 102.29C286.976 102.29 286.898 102.274 286.826 102.243C286.754 102.212 286.689 102.167 286.635 102.111C284.683 100.17 282.129 99.0728 279.416 99.0728C276.509 99.0728 273.789 100.332 271.801 102.528C271.749 102.585 271.686 102.632 271.616 102.665C271.546 102.698 271.47 102.717 271.393 102.721C271.315 102.725 271.238 102.713 271.165 102.687C271.092 102.661 271.025 102.621 270.968 102.569C270.91 102.517 270.864 102.454 270.83 102.384C270.797 102.314 270.778 102.239 270.774 102.161C270.77 102.084 270.782 102.007 270.808 101.934C270.834 101.861 270.874 101.794 270.926 101.736C273.133 99.2981 276.169 97.8933 279.416 97.8933C282.447 97.8933 285.298 99.117 287.466 101.276H287.467ZM275.936 101.461C276.08 101.4 276.242 101.399 276.387 101.458C276.532 101.516 276.648 101.63 276.709 101.774C276.77 101.919 276.771 102.081 276.713 102.226C276.654 102.371 276.54 102.487 276.396 102.548C273.552 103.752 271.665 106.546 271.663 109.743C271.45 112.04 270.778 113.721 269.615 114.761C269.498 114.861 269.346 114.91 269.193 114.9C269.04 114.889 268.897 114.819 268.795 114.704C268.692 114.59 268.638 114.44 268.645 114.287C268.651 114.133 268.717 113.988 268.829 113.883C269.738 113.069 270.302 111.661 270.486 109.688C270.486 107.933 271.002 106.217 271.972 104.754C272.941 103.291 274.32 102.145 275.936 101.461ZM286.894 119.219C286.86 119.289 286.812 119.352 286.754 119.403C286.695 119.454 286.627 119.494 286.553 119.518C286.48 119.543 286.402 119.553 286.324 119.548C286.246 119.543 286.171 119.522 286.101 119.487C286.031 119.453 285.969 119.404 285.918 119.345C285.867 119.287 285.829 119.218 285.804 119.144C285.78 119.07 285.771 118.992 285.777 118.915C285.782 118.837 285.804 118.761 285.839 118.692C286.07 118.231 286.27 117.75 286.439 117.25C287.137 115.195 287.285 113.288 287.193 110.635L287.175 110.119C287.17 109.94 287.167 109.806 287.167 109.688C287.167 109.532 287.229 109.382 287.34 109.271C287.451 109.161 287.601 109.099 287.757 109.099C287.913 109.099 288.063 109.161 288.174 109.271C288.285 109.382 288.347 109.532 288.347 109.688C288.347 109.791 288.349 109.915 288.354 110.082L288.372 110.595C288.468 113.378 288.311 115.407 287.556 117.629C287.369 118.178 287.149 118.709 286.894 119.219ZM287.843 106.724C287.895 106.872 287.886 107.034 287.819 107.175C287.751 107.316 287.63 107.425 287.482 107.476C287.335 107.528 287.173 107.52 287.032 107.452C286.891 107.384 286.782 107.263 286.73 107.116C286.172 105.532 285.116 104.173 283.719 103.241C282.323 102.309 280.661 101.856 278.985 101.95C278.829 101.958 278.675 101.904 278.559 101.8C278.442 101.696 278.372 101.549 278.363 101.393C278.355 101.237 278.409 101.083 278.513 100.967C278.617 100.85 278.764 100.78 278.92 100.771C280.851 100.664 282.765 101.186 284.374 102.26C285.984 103.333 287.201 104.9 287.843 106.724ZM280.903 103.546C281.058 103.572 281.195 103.658 281.286 103.785C281.377 103.913 281.414 104.071 281.388 104.225C281.362 104.379 281.276 104.517 281.149 104.608C281.021 104.699 280.863 104.735 280.709 104.71C279.023 104.428 277.493 104.846 276.078 105.978C275.19 106.688 274.806 107.456 274.611 108.627C274.574 108.851 274.551 109.023 274.499 109.452C274.355 110.626 274.242 111.162 273.92 111.806C273.885 111.875 273.838 111.938 273.779 111.989C273.721 112.041 273.653 112.08 273.579 112.105C273.505 112.13 273.427 112.14 273.35 112.134C273.272 112.129 273.196 112.108 273.126 112.074C273.057 112.039 272.995 111.991 272.944 111.932C272.893 111.873 272.854 111.804 272.83 111.73C272.806 111.657 272.796 111.579 272.802 111.501C272.808 111.423 272.829 111.348 272.865 111.278C273.106 110.795 273.201 110.351 273.328 109.309C273.382 108.863 273.407 108.68 273.448 108.433C273.687 106.997 274.201 105.969 275.341 105.058C277.014 103.719 278.882 103.209 280.903 103.546ZM271.906 113.672C271.957 113.526 272.064 113.405 272.203 113.337C272.342 113.268 272.503 113.258 272.65 113.307C272.797 113.356 272.919 113.461 272.989 113.599C273.059 113.737 273.072 113.898 273.025 114.045C272.685 115.066 272.017 116.068 271.029 117.056C270.919 117.167 270.769 117.229 270.612 117.229C270.456 117.229 270.306 117.167 270.195 117.056C270.084 116.946 270.022 116.796 270.022 116.639C270.022 116.483 270.084 116.333 270.195 116.222C271.061 115.356 271.628 114.505 271.906 113.672ZM283.169 106.398C283.115 106.343 283.071 106.278 283.041 106.207C283.012 106.135 282.997 106.058 282.997 105.981C282.997 105.903 283.012 105.827 283.042 105.755C283.071 105.684 283.115 105.619 283.17 105.564C283.224 105.509 283.289 105.466 283.361 105.436C283.433 105.406 283.509 105.391 283.587 105.391C283.664 105.391 283.741 105.407 283.812 105.436C283.884 105.466 283.949 105.509 284.004 105.564C285.054 106.614 285.567 108.153 285.567 110.152C285.567 115.116 284.515 118.855 282.186 121.65C282.086 121.77 281.942 121.846 281.787 121.86C281.631 121.874 281.476 121.826 281.356 121.726C281.235 121.626 281.16 121.482 281.146 121.326C281.131 121.171 281.18 121.016 281.28 120.895C283.409 118.34 284.387 114.863 284.387 110.152C284.387 108.443 283.973 107.203 283.169 106.398ZM282.786 109.695C282.784 109.851 282.72 110.001 282.609 110.11C282.497 110.219 282.346 110.28 282.19 110.278C282.033 110.276 281.884 110.213 281.775 110.101C281.665 109.989 281.605 109.838 281.606 109.682C281.624 108.158 280.964 107.498 279.416 107.498C277.869 107.498 277.209 108.159 277.224 109.727C276.903 114.542 275.111 117.964 271.842 119.925C271.776 119.967 271.701 119.996 271.623 120.009C271.546 120.023 271.466 120.02 271.389 120.002C271.312 119.984 271.24 119.951 271.176 119.904C271.113 119.858 271.059 119.799 271.018 119.732C270.978 119.664 270.951 119.589 270.94 119.511C270.929 119.433 270.934 119.353 270.954 119.277C270.974 119.201 271.009 119.129 271.058 119.067C271.106 119.004 271.166 118.952 271.235 118.914C274.145 117.168 275.751 114.103 276.046 109.695C276.022 107.512 277.215 106.318 279.416 106.318C281.617 106.318 282.811 107.512 282.786 109.695ZM278.826 109.688C278.826 109.532 278.888 109.382 278.999 109.271C279.11 109.161 279.26 109.099 279.416 109.099C279.573 109.099 279.723 109.161 279.833 109.271C279.944 109.382 280.006 109.532 280.006 109.688C280.006 114.484 278.395 118.352 275.177 121.247C275.06 121.348 274.909 121.4 274.754 121.39C274.6 121.38 274.456 121.311 274.353 121.196C274.25 121.081 274.195 120.931 274.202 120.776C274.208 120.622 274.275 120.477 274.388 120.371C277.348 117.706 278.826 114.16 278.826 109.688ZM281.614 112.379C281.637 112.224 281.722 112.085 281.848 111.993C281.974 111.9 282.132 111.862 282.286 111.885C282.441 111.909 282.58 111.993 282.672 112.12C282.765 112.246 282.803 112.403 282.779 112.558C282.141 116.703 280.691 119.765 278.409 121.72C278.351 121.774 278.283 121.816 278.208 121.843C278.133 121.869 278.054 121.881 277.975 121.876C277.896 121.871 277.818 121.851 277.747 121.816C277.676 121.78 277.613 121.731 277.561 121.671C277.51 121.611 277.471 121.541 277.447 121.465C277.423 121.389 277.415 121.31 277.422 121.231C277.43 121.152 277.453 121.075 277.491 121.005C277.529 120.936 277.581 120.874 277.643 120.825C279.686 119.074 281.016 116.266 281.614 112.379Z" fill="#483E6B"/>
<rect x="263.051" y="36.2336" width="31.4363" height="27.5439" rx="3.5" fill="#FFECD5" stroke="#483E6B"/>
<mask id="path-11-inside-1_3244_18797" fill="white">
<path fill-rule="evenodd" clip-rule="evenodd" d="M274.53 48.4751H282.173V45.9801C282.173 43.8693 280.462 42.1582 278.351 42.1582C276.241 42.1582 274.53 43.8693 274.53 45.9801V48.4751ZM272.53 48.4751H271.867C271.315 48.4751 270.867 48.9228 270.867 49.4751V59.1189C270.867 59.6712 271.315 60.1189 271.867 60.1189H284.838C285.39 60.1189 285.838 59.6712 285.838 59.1189V49.4751C285.838 48.9228 285.39 48.4751 284.838 48.4751H284.173V45.9801C284.173 42.7648 281.567 40.1582 278.351 40.1582C275.136 40.1582 272.53 42.7648 272.53 45.9801V48.4751Z"/>
</mask>
<path fill-rule="evenodd" clip-rule="evenodd" d="M274.53 48.4751H282.173V45.9801C282.173 43.8693 280.462 42.1582 278.351 42.1582C276.241 42.1582 274.53 43.8693 274.53 45.9801V48.4751ZM272.53 48.4751H271.867C271.315 48.4751 270.867 48.9228 270.867 49.4751V59.1189C270.867 59.6712 271.315 60.1189 271.867 60.1189H284.838C285.39 60.1189 285.838 59.6712 285.838 59.1189V49.4751C285.838 48.9228 285.39 48.4751 284.838 48.4751H284.173V45.9801C284.173 42.7648 281.567 40.1582 278.351 40.1582C275.136 40.1582 272.53 42.7648 272.53 45.9801V48.4751Z" fill="#B5AEFF"/>
<path d="M274.53 48.4751H273.53V49.4751H274.53V48.4751ZM282.173 48.4751V49.4751H283.173V48.4751H282.173ZM272.53 48.4751V49.4751H273.53V48.4751H272.53ZM284.173 48.4751H283.173V49.4751H284.173V48.4751ZM274.53 49.4751H282.173V47.4751H274.53V49.4751ZM283.173 48.4751V45.9801H281.173V48.4751H283.173ZM283.173 45.9801C283.173 43.317 281.015 41.1582 278.351 41.1582V43.1582C279.91 43.1582 281.173 44.4216 281.173 45.9801H283.173ZM278.351 41.1582C275.688 41.1582 273.53 43.317 273.53 45.9801H275.53C275.53 44.4216 276.793 43.1582 278.351 43.1582V41.1582ZM273.53 45.9801V48.4751H275.53V45.9801H273.53ZM271.867 49.4751H272.53V47.4751H271.867V49.4751ZM271.867 49.4751V47.4751C270.763 47.4751 269.867 48.3705 269.867 49.4751H271.867ZM271.867 59.1189V49.4751H269.867V59.1189H271.867ZM271.867 59.1189H271.867H269.867C269.867 60.2234 270.763 61.1189 271.867 61.1189V59.1189ZM284.838 59.1189H271.867V61.1189H284.838V59.1189ZM284.838 59.1189V59.1189V61.1189C285.942 61.1189 286.838 60.2234 286.838 59.1189H284.838ZM284.838 49.4751V59.1189H286.838V49.4751H284.838ZM284.838 49.4751H284.838H286.838C286.838 48.3705 285.942 47.4751 284.838 47.4751V49.4751ZM284.173 49.4751H284.838V47.4751H284.173V49.4751ZM285.173 48.4751V45.9801H283.173V48.4751H285.173ZM285.173 45.9801C285.173 42.2125 282.119 39.1582 278.351 39.1582V41.1582C281.015 41.1582 283.173 43.317 283.173 45.9801H285.173ZM278.351 39.1582C274.584 39.1582 271.53 42.2125 271.53 45.9801H273.53C273.53 43.317 275.688 41.1582 278.351 41.1582V39.1582ZM271.53 45.9801V48.4751H273.53V45.9801H271.53Z" fill="#483E6B" mask="url(#path-11-inside-1_3244_18797)"/>
<path fill-rule="evenodd" clip-rule="evenodd" d="M172.026 59.7366C172.026 61.6923 170.44 63.2777 168.484 63.2777C166.529 63.2777 164.943 61.6923 164.943 59.7366C164.943 57.781 166.529 56.1956 168.484 56.1956C170.44 56.1956 172.026 57.781 172.026 59.7366ZM170.946 63.5533C170.237 64.0117 169.392 64.2777 168.484 64.2777C165.976 64.2777 163.943 62.2446 163.943 59.7366C163.943 57.2287 165.976 55.1956 168.484 55.1956C170.992 55.1956 173.026 57.2287 173.026 59.7366C173.026 60.9756 172.529 62.0986 171.725 62.918L172.731 63.9241C172.926 64.1194 172.926 64.436 172.731 64.6312C172.536 64.8265 172.219 64.8265 172.024 64.6312L170.946 63.5533Z" fill="#483E6B"/>
<path d="M285 18C301.07 17.2983 311.627 20.3806 314.285 27.1637C320.351 42.6491 280.893 72.586 226.154 94.0296C171.415 115.473 122.122 120.303 116.056 104.818C112.86 96.6612 122.295 84.495 139.941 71.6725" stroke="#483E6B"/>
<path d="M187.988 95.3793L193.37 94.396L196.929 98.5516L196.931 98.5531L200.473 102.723L198.654 107.883L198.653 107.884L196.814 113.037L191.435 114.042L191.433 114.042L186.051 115.025L182.492 110.87L182.491 110.868L178.948 106.699L180.768 101.539L180.768 101.537L182.608 96.384L187.986 95.3797L187.988 95.3793Z" fill="#B5AEFF" stroke="#483E6B"/>
<path d="M193.457 94.615L189.925 104.57" stroke="#483E6B"/>
<path d="M179.59 105.806C179.318 105.853 179.141 106.11 179.194 106.381C179.248 106.652 179.513 106.833 179.785 106.787L179.59 105.806ZM189.822 104.058L179.59 105.806L179.785 106.787L190.017 105.038L189.822 104.058Z" fill="#483E6B"/>
<path d="M189.93 104.552L196.772 112.359" stroke="#483E6B"/>
<path d="M306.238 17.9262L308.713 16.5039L311.187 17.9262L311.189 17.9272L313.658 19.3591L313.664 22.2133V22.2152L313.658 25.0694L311.189 26.5013L311.187 26.5023L308.713 27.9245L306.238 26.5023L306.237 26.5013L303.768 25.0694L303.762 22.2152V22.2133L303.768 19.3591L306.237 17.9267L306.238 17.9262Z" fill="#EAC9F8" stroke="#483E6B"/>
<path d="M308.797 16.3389V22.103" stroke="#483E6B"/>
<path d="M308.791 22.0923L303.848 24.8585" stroke="#483E6B"/>
<path d="M308.797 22.0923L313.74 24.8585" stroke="#483E6B"/>
<rect x="75.5" y="26.5" width="37" height="39" rx="3.5" fill="#B5AEFF" stroke="#483E6B"/>
<rect x="82.5" y="33.5" width="23" height="25" rx="1.5" fill="#EDFCE3" stroke="#483E6B"/>
<circle cx="94" cy="43" r="3.5" fill="#B5AEFF" stroke="#483E6B"/>
<mask id="path-26-inside-2_3244_18797" fill="white">
<path fill-rule="evenodd" clip-rule="evenodd" d="M101.086 53C101.086 49.134 97.9327 46 94.043 46C90.1533 46 87 49.134 87 53H101.086Z"/>
</mask>
<path fill-rule="evenodd" clip-rule="evenodd" d="M101.086 53C101.086 49.134 97.9327 46 94.043 46C90.1533 46 87 49.134 87 53H101.086Z" fill="#B5AEFF"/>
<path d="M101.086 53V54H102.086V53H101.086ZM87 53H86V54H87V53ZM94.043 47C97.3862 47 100.086 49.6921 100.086 53H102.086C102.086 48.576 98.4792 45 94.043 45V47ZM88 53C88 49.6921 90.6998 47 94.043 47V45C89.6068 45 86 48.576 86 53H88ZM87 54H101.086V52H87V54Z" fill="#483E6B" mask="url(#path-26-inside-2_3244_18797)"/>
<rect x="130.711" y="85.5369" width="31.4363" height="19.7592" rx="1.5" fill="#EAC9F8" stroke="#483E6B"/>
<rect x="134.604" y="89.4292" width="6.78471" height="5.48726" rx="0.5" fill="white" stroke="#483E6B"/>
<path d="M141.889 99.3088H145.781" stroke="#483E6B" stroke-linecap="round" stroke-linejoin="round"/>
<path d="M148.375 99.3088H152.267" stroke="#483E6B" stroke-linecap="round" stroke-linejoin="round"/>
<path d="M154.863 99.3088H158.756" stroke="#483E6B" stroke-linecap="round" stroke-linejoin="round"/>
<path d="M135.4 99.3088H139.293" stroke="#483E6B" stroke-linecap="round" stroke-linejoin="round"/>
<path d="M135.4 101.904H147.077" stroke="#483E6B" stroke-linecap="round" stroke-linejoin="round"/>
<circle cx="154.862" cy="91.5241" r="2.0949" fill="#EAC9F8" stroke="#483E6B"/>
<circle cx="157.458" cy="91.5241" r="2.0949" fill="#EAC9F8" stroke="#483E6B"/>
<rect x="316.5" y="61.5" width="35" height="30" rx="3.5" fill="#EDFCE3" stroke="#483E6B"/>
<circle cx="326.5" cy="69.5" r="2" fill="#FFECD5" stroke="#453F68"/>
<path d="M346.097 86H322.912C322.105 86 321.63 85.0926 322.091 84.4295L326.759 77.7087C327.155 77.1379 327.999 77.1355 328.398 77.704L331.297 81.8276C331.697 82.3966 332.542 82.3936 332.938 81.8218L338.222 74.1904C338.621 73.6153 339.471 73.6164 339.868 74.1925L346.921 84.4328C347.378 85.0962 346.903 86 346.097 86Z" fill="#B5AEFF" stroke="#453F68"/>
</svg>
