<svg width="130" height="130" viewBox="0 0 130 130" fill="none" xmlns="http://www.w3.org/2000/svg">
<path d="M60.5648 6.35281C62.9447 3.74068 67.0553 3.74068 69.4352 6.35281L74.697 12.1281C76.8021 14.4385 80.0599 15.3114 83.0381 14.3631L90.4826 11.9924C93.8497 10.9202 97.4096 12.9755 98.1646 16.4276L99.8339 24.0601C100.502 27.1135 102.886 29.4984 105.94 30.1662L113.572 31.8354C117.024 32.5904 119.08 36.1503 118.008 39.5174L115.637 46.9619C114.689 49.9401 115.561 53.1979 117.872 55.3029L123.647 60.5648C126.259 62.9447 126.259 67.0553 123.647 69.4352L117.872 74.697C115.561 76.8021 114.689 80.0599 115.637 83.0381L118.008 90.4826C119.08 93.8497 117.024 97.4096 113.572 98.1646L105.94 99.8339C102.887 100.502 100.502 102.887 99.8339 105.94L98.1646 113.572C97.4096 117.024 93.8497 119.08 90.4826 118.008L83.0381 115.637C80.0599 114.689 76.8021 115.561 74.697 117.872L69.4352 123.647C67.0553 126.259 62.9447 126.259 60.5648 123.647L55.3029 117.872C53.1979 115.561 49.9401 114.689 46.9619 115.637L39.5174 118.008C36.1503 119.08 32.5904 117.024 31.8354 113.572L30.1662 105.94C29.4984 102.887 27.1135 100.502 24.0601 99.8339L16.4276 98.1646C12.9755 97.4096 10.9202 93.8497 11.9924 90.4826L14.3631 83.0381C15.3114 80.0599 14.4385 76.8021 12.1281 74.697L6.35281 69.4352C3.74068 67.0553 3.74068 62.9447 6.35281 60.5648L12.1281 55.3029C14.4385 53.1979 15.3114 49.9401 14.3631 46.9619L11.9924 39.5174C10.9202 36.1503 12.9755 32.5904 16.4276 31.8354L24.0601 30.1662C27.1135 29.4984 29.4984 27.1135 30.1662 24.0601L31.8354 16.4276C32.5904 12.9755 36.1503 10.9202 39.5174 11.9924L46.9619 14.3631C49.9401 15.3114 53.1979 14.4385 55.3029 12.1281L60.5648 6.35281Z" fill="#CFC8F6" stroke="#6B6395" stroke-width="2"/>
<path d="M60.5648 20.3528C62.9447 17.7407 67.0553 17.7407 69.4352 20.3528L71.7983 22.9465C73.9033 25.2569 77.1611 26.1298 80.1393 25.1814L83.4826 24.1168C86.8497 23.0446 90.4096 25.0999 91.1646 28.552L91.9143 31.9797C92.582 35.0331 94.9669 37.418 98.0203 38.0857L101.448 38.8354C104.9 39.5904 106.955 43.1503 105.883 46.5174L104.819 49.8607C103.87 52.8389 104.743 56.0967 107.054 58.2017L109.647 60.5648C112.259 62.9447 112.259 67.0553 109.647 69.4352L107.054 71.7983C104.743 73.9033 103.87 77.1611 104.819 80.1393L105.883 83.4826C106.955 86.8497 104.9 90.4096 101.448 91.1646L98.0203 91.9143C94.9669 92.582 92.582 94.9669 91.9143 98.0203L91.1646 101.448C90.4096 104.9 86.8497 106.955 83.4826 105.883L80.1393 104.819C77.1611 103.87 73.9033 104.743 71.7983 107.054L69.4352 109.647C67.0553 112.259 62.9447 112.259 60.5648 109.647L58.2017 107.054C56.0967 104.743 52.8389 103.87 49.8607 104.819L46.5174 105.883C43.1503 106.955 39.5904 104.9 38.8354 101.448L38.0857 98.0203C37.418 94.9669 35.0331 92.582 31.9797 91.9143L28.552 91.1646C25.0999 90.4096 23.0446 86.8497 24.1168 83.4826L25.1814 80.1393C26.1298 77.1611 25.2569 73.9033 22.9465 71.7983L20.3528 69.4352C17.7407 67.0553 17.7407 62.9447 20.3528 60.5648L22.9465 58.2017C25.2569 56.0967 26.1298 52.8389 25.1814 49.8607L24.1168 46.5174C23.0446 43.1503 25.0999 39.5904 28.552 38.8354L31.9797 38.0857C35.0331 37.418 37.418 35.0331 38.0857 31.9797L38.8354 28.552C39.5904 25.0999 43.1503 23.0446 46.5174 24.1168L49.8607 25.1814C52.8389 26.1298 56.0967 25.2569 58.2017 22.9465L60.5648 20.3528Z" fill="white" stroke="#6B6395" stroke-width="2"/>
<circle cx="65" cy="65" r="30" fill="#EDFCE3" stroke="#6B6395" stroke-width="2"/>
<path d="M64.0034 48.7262C64.6205 48.3715 65.3795 48.3715 65.9966 48.7262L72.3013 52.3499L72.3047 52.3518L78.5952 56C79.2109 56.3571 79.5904 57.0145 79.5918 57.7262L79.606 64.9981V65.0019L79.5918 72.2738C79.5904 72.9855 79.2109 73.6429 78.5952 74L72.3047 77.6482L72.3013 77.6501L65.9966 81.2738C65.3795 81.6285 64.6205 81.6285 64.0034 81.2738L57.6987 77.6501L57.6953 77.6482L51.4048 74C50.7891 73.6429 50.4096 72.9855 50.4082 72.2738L50.394 65.0019V64.9981L50.4082 57.7262C50.4096 57.0145 50.7891 56.3571 51.4048 56L57.6953 52.3518L57.6987 52.3499L64.0034 48.7262Z" fill="#CFC8F6" stroke="#6B6395" stroke-width="2"/>
<path d="M65.2441 48.179V64.6821" stroke="#6B6395" stroke-width="2"/>
<path d="M65.2227 64.6516L51.0697 72.5714" stroke="#6B6395" stroke-width="2"/>
<path d="M65.2441 64.6516L79.3971 72.5714" stroke="#6B6395" stroke-width="2"/>
<path d="M86.9876 44.0032C94.6907 41.6779 100.097 41.3078 101.315 43.4479C103.692 47.6232 89.2291 59.7724 69.0117 70.5838C48.7943 81.3952 30.478 86.7749 28.1012 82.5996C26.8951 80.4808 30.0252 76.3088 36.0431 71.3002" stroke="#6B6395" stroke-width="2"/>
</svg>
