<svg width="248" height="32" viewBox="0 0 248 32" fill="none" xmlns="http://www.w3.org/2000/svg">
<rect x="4.5" y="4.5" width="19" height="19" rx="1.5" fill="#FFFCF9" stroke="#6B6395"/>
<rect x="8.5" y="8.5" width="19" height="19" rx="1.5" fill="#EDFCE3" stroke="#6B6395"/>
<path d="M15 21H21" stroke="#6B6395" stroke-linecap="round"/>
<path d="M18 18L18 24" stroke="#6B6395" stroke-linecap="round"/>
<path d="M8.5 10C8.5 9.17157 9.17157 8.5 10 8.5H26C26.8284 8.5 27.5 9.17157 27.5 10V13.5H8.5V10Z" fill="#EDFCE3" stroke="#6B6395"/>
<path d="M44 17.5V14.7273H55.4483V11L60 16L55.4483 21V17.5H44Z" fill="#CFC8F7" stroke="#6B6395" stroke-linecap="round" stroke-linejoin="round"/>
<path d="M90.9703 6.06091C92.0808 5.56619 93.3721 6.16835 93.7069 7.33699L94.06 8.56953C94.25 9.23284 94.7685 9.75135 95.4319 9.94138L96.6644 10.2945C97.833 10.6293 98.4352 11.9206 97.9405 13.0311L97.4187 14.2022C97.1379 14.8325 97.2018 15.563 97.5878 16.1349L98.305 17.1977C98.985 18.2053 98.6163 19.5816 97.5235 20.1142L96.371 20.676C95.7508 20.9783 95.3302 21.579 95.2582 22.2652L95.1245 23.5404C94.9977 24.7494 93.8306 25.5666 92.6511 25.2723L91.4071 24.9618C90.7377 24.7947 90.0294 24.9845 89.5332 25.4639L88.6111 26.3548C87.7368 27.1995 86.3174 27.0753 85.6031 26.0916L84.8498 25.0542C84.4443 24.4959 83.7797 24.186 83.0914 24.2343L81.8125 24.324C80.5998 24.4091 79.5923 23.4016 79.6774 22.1889L79.7671 20.9099C79.8154 20.2216 79.5055 19.5571 78.9472 19.1516L77.9098 18.3983C76.9261 17.684 76.8019 16.2646 77.6466 15.3903L78.5375 14.4682C79.0169 13.972 79.2067 13.2637 79.0396 12.5942L78.7291 11.3503C78.4347 10.1708 79.252 9.00365 80.461 8.87687L81.7362 8.74316C82.4224 8.6712 83.0231 8.25061 83.3254 7.63038L83.8871 6.47788C84.4198 5.38512 85.7961 5.01635 86.8037 5.69638L87.8665 6.41359C88.4384 6.79956 89.1689 6.86348 89.7992 6.58268L90.9703 6.06091Z" fill="#CFC8F7" stroke="#6B6395" stroke-linecap="round" stroke-linejoin="round"/>
<path d="M87.0938 10.9417C87.4529 10.1722 88.5471 10.1722 88.9062 10.9416L90.0736 13.4431C90.1729 13.656 90.344 13.8271 90.5569 13.9264L93.0583 15.0938C93.8278 15.4529 93.8278 16.5471 93.0584 16.9062L90.5569 18.0736C90.344 18.1729 90.1729 18.344 90.0736 18.5569L88.9062 21.0583C88.5471 21.8278 87.4529 21.8278 87.0938 21.0584L85.9264 18.5569C85.8271 18.344 85.656 18.1729 85.4431 18.0736L82.9417 16.9062C82.1722 16.5471 82.1722 15.4529 82.9416 15.0938L85.4431 13.9264C85.656 13.8271 85.8271 13.656 85.9264 13.4431L87.0938 10.9417Z" fill="#EDFCE3" stroke="#6B6395" stroke-linecap="round" stroke-linejoin="round"/>
<path d="M116 17.5V14.7273H127.448V11L132 16L127.448 21V17.5H116Z" fill="#CFC8F7" stroke="#6B6395" stroke-linecap="round" stroke-linejoin="round"/>
<mask id="path-10-inside-1_3302_15749" fill="white">
<path fill-rule="evenodd" clip-rule="evenodd" d="M146 7C146 5.89543 146.895 5 148 5H170C171.105 5 172 5.89543 172 7V12.126C170.275 12.5701 169 14.1362 169 16C169 17.8638 170.275 19.4299 172 19.874V23C172 25.2091 170.209 27 168 27H148C146.895 27 146 26.1046 146 25V19.874C147.725 19.4299 149 17.8638 149 16C149 14.1362 147.725 12.5701 146 12.126V7Z"/>
</mask>
<path fill-rule="evenodd" clip-rule="evenodd" d="M146 7C146 5.89543 146.895 5 148 5H170C171.105 5 172 5.89543 172 7V12.126C170.275 12.5701 169 14.1362 169 16C169 17.8638 170.275 19.4299 172 19.874V23C172 25.2091 170.209 27 168 27H148C146.895 27 146 26.1046 146 25V19.874C147.725 19.4299 149 17.8638 149 16C149 14.1362 147.725 12.5701 146 12.126V7Z" fill="#EDFCE3"/>
<path d="M172 12.126L172.249 13.0945L173 12.9012V12.126H172ZM172 19.874H173V19.0988L172.249 18.9055L172 19.874ZM146 19.874L145.751 18.9055L145 19.0988V19.874H146ZM146 12.126H145V12.9012L145.751 13.0945L146 12.126ZM148 4C146.343 4 145 5.34314 145 7H147C147 6.44772 147.448 6 148 6V4ZM170 4H148V6H170V4ZM173 7C173 5.34315 171.657 4 170 4V6C170.552 6 171 6.44772 171 7H173ZM173 12.126V7H171V12.126H173ZM170 16C170 14.6035 170.955 13.4275 172.249 13.0945L171.751 11.1576C169.594 11.7126 168 13.6688 168 16H170ZM172.249 18.9055C170.955 18.5725 170 17.3965 170 16H168C168 18.3312 169.594 20.2874 171.751 20.8424L172.249 18.9055ZM173 23V19.874H171V23H173ZM168 28C170.761 28 173 25.7614 173 23H171C171 24.6569 169.657 26 168 26V28ZM148 28H168V26H148V28ZM145 25C145 26.6569 146.343 28 148 28V26C147.448 26 147 25.5523 147 25H145ZM145 19.874V25H147V19.874H145ZM148 16C148 17.3965 147.045 18.5725 145.751 18.9055L146.249 20.8424C148.406 20.2874 150 18.3312 150 16H148ZM145.751 13.0945C147.045 13.4275 148 14.6035 148 16H150C150 13.6688 148.406 11.7126 146.249 11.1576L145.751 13.0945ZM145 7V12.126H147V7H145Z" fill="#6B6395" mask="url(#path-10-inside-1_3302_15749)"/>
<path d="M153 13H165" stroke="#6B6395" stroke-linecap="round"/>
<path d="M153 19.5H165" stroke="#6B6395" stroke-linecap="round"/>
<circle cx="168" cy="21" r="6.5" fill="#CFC8F6" stroke="#6B6395"/>
<path d="M168 24V19" stroke="#6B6395" stroke-linecap="round"/>
<path d="M166 20L168 18L170 20" stroke="#6B6395" stroke-linecap="round" stroke-linejoin="round"/>
<path d="M188 17.5V14.7273H199.448V11L204 16L199.448 21V17.5H188Z" fill="#CFC8F7" stroke="#6B6395" stroke-linecap="round" stroke-linejoin="round"/>
<path d="M220.5 11C220.5 10.1716 221.172 9.5 222 9.5H240C240.828 9.5 241.5 10.1716 241.5 11V26C241.5 26.8284 240.828 27.5 240 27.5H222C221.172 27.5 220.5 26.8284 220.5 26V11Z" fill="#CFC8F6" stroke="#6B6395"/>
<path d="M229.82 19L221 27H240C240.552 27 241 26.5523 241 26V23.5L235.5 18L232.41 21.4138L229.82 19Z" fill="#EDFCE3"/>
<path d="M221 27L229.82 19L235 23.8276" stroke="#6B6395" stroke-linecap="round" stroke-linejoin="round"/>
<path d="M232.711 21.231L235.71 18L241 23" stroke="#6B6395" stroke-linecap="round" stroke-linejoin="round"/>
<circle cx="239" cy="10" r="5.5" fill="#EDFCE3" stroke="#6B6395"/>
<path d="M237 12.1354L240.535 8.59985" stroke="#6B6395" stroke-linecap="round"/>
<path d="M238.291 8.01407H241.119V10.8425" stroke="#6B6395" stroke-linecap="round" stroke-linejoin="round"/>
</svg>
