<svg width="130" height="130" viewBox="0 0 130 130" fill="none" xmlns="http://www.w3.org/2000/svg">
<path d="M58.9917 5.24413C63.1045 3.2635 67.8954 3.2635 72.0083 5.24413L109.334 23.2192C113.447 25.1999 116.434 28.9455 117.45 33.3959L126.668 73.7856C127.684 78.236 126.618 82.9068 123.772 86.4758L97.9417 118.866C95.0955 122.435 90.7791 124.513 86.2142 124.513H44.7858C40.2209 124.513 35.9045 122.435 33.0583 118.866L7.22816 86.4758C4.38202 82.9068 3.31594 78.2361 4.33172 73.7856L13.5504 33.396C14.5662 28.9455 17.5533 25.1999 21.6661 23.2192L58.9917 5.24413Z" fill="#CFC8F6" stroke="#6B6395" stroke-width="2" stroke-linejoin="bevel"/>
<path d="M60.1908 16.4497C63.2271 14.9737 66.7729 14.9737 69.8092 16.4497L100.814 31.5215C103.818 32.9822 105.997 35.7296 106.733 38.9885L114.432 73.0363C115.165 76.2766 114.394 79.6745 112.334 82.2813L90.8145 109.521C88.7284 112.161 85.5483 113.702 82.1831 113.702H47.8169C44.4517 113.702 41.2716 112.161 39.1855 109.521L17.6657 82.2813C15.6063 79.6745 14.8353 76.2766 15.5679 73.0363L23.2665 38.9885C24.0034 35.7296 26.1815 32.9822 29.1865 31.5215L60.1908 16.4497Z" fill="white" stroke="#6B6395" stroke-width="2" stroke-linejoin="bevel"/>
<path d="M61.0524 32.0395C63.5437 30.8236 66.4563 30.8236 68.9476 32.0395L89.1745 41.9119C91.6292 43.11 93.4069 45.358 94.007 48.0227L99.0515 70.4227C99.6467 73.0657 99.0196 75.8362 97.3444 77.9653L83.2706 95.8516C81.5642 98.0203 78.9572 99.2863 76.1976 99.2863H53.8024C51.0428 99.2863 48.4358 98.0203 46.7294 95.8516L32.6556 77.9653C30.9804 75.8362 30.3533 73.0657 30.9485 70.4227L35.993 48.0227C36.5931 45.358 38.3708 43.11 40.8255 41.9119L61.0524 32.0395Z" fill="#EDFCE3" stroke="#6B6395" stroke-width="2" stroke-linejoin="bevel"/>
<path d="M52.0373 80.5911L51.984 81.4784L52.0373 80.5911L47.8517 80.3399L55.7156 66.7191L63.7609 71.364L55.8969 84.9848L53.5865 81.4855C53.2396 80.9602 52.6657 80.6288 52.0373 80.5911Z" fill="#CFC8F6" stroke="#6B6395" stroke-width="2"/>
<path d="M77.9627 80.5911L78.016 81.4784L77.9627 80.5911L82.1483 80.3399L74.2844 66.7191L66.2391 71.364L74.1031 84.9848L76.4135 81.4855C76.7604 80.9602 77.3343 80.6288 77.9627 80.5911Z" fill="#CFC8F6" stroke="#6B6395" stroke-width="2"/>
<path d="M63.125 46.5428C64.1311 45.4385 65.8689 45.4385 66.875 46.5428L67.6142 45.8693L66.875 46.5428C68.0687 47.8529 69.916 48.3479 71.6048 47.8101C73.0283 47.3568 74.5332 48.2257 74.8524 49.6851C75.2311 51.4166 76.5834 52.7689 78.3149 53.1476C79.7743 53.4668 80.6432 54.9717 80.1899 56.3952C79.6521 58.084 80.1471 59.9313 81.4573 61.125C82.5615 62.1311 82.5615 63.8689 81.4572 64.875C80.1471 66.0687 79.6521 67.916 80.1899 69.6048C80.6432 71.0283 79.7743 72.5332 78.3149 72.8524C76.5834 73.2311 75.2311 74.5834 74.8524 76.3149C74.5332 77.7743 73.0283 78.6432 71.6048 78.1899C69.916 77.6521 68.0687 78.1471 66.875 79.4572C65.8689 80.5615 64.1311 80.5615 63.125 79.4572C61.9313 78.1471 60.084 77.6521 58.3952 78.1899C56.9717 78.6432 55.4668 77.7743 55.1476 76.3149C54.7689 74.5834 53.4166 73.2311 51.6851 72.8524C50.2257 72.5332 49.3568 71.0283 49.8101 69.6048C50.3479 67.916 49.8529 66.0687 48.5428 64.875L47.8693 65.6142L48.5428 64.875C47.4385 63.8689 47.4385 62.1311 48.5428 61.125L47.8693 60.3858L48.5428 61.125C49.8529 59.9313 50.3479 58.084 49.8101 56.3952C49.3568 54.9717 50.2257 53.4668 51.6851 53.1476C53.4166 52.7689 54.7689 51.4166 55.1476 49.6851C55.4668 48.2257 56.9717 47.3568 58.3952 47.8101C60.084 48.3479 61.9313 47.8529 63.125 46.5428L62.3858 45.8693L63.125 46.5428Z" fill="#CFC8F6" stroke="#6B6395" stroke-width="2"/>
<path d="M30.4997 75.0744C26.1287 79.175 24.0387 82.5457 25.1071 84.4494C27.6324 88.9487 46.844 83.5507 68.0175 72.3926C89.1909 61.2344 104.308 48.5416 101.783 44.0422C100.731 42.1674 96.7813 42.0111 90.9997 43.2739" stroke="#6B6395" stroke-width="2"/>
</svg>
