<svg width="28" height="28" viewBox="0 0 28 28" fill="none" xmlns="http://www.w3.org/2000/svg">
<path d="M14 2L15.3481 7.00692C16.0894 9.76007 18.2399 11.9106 20.9931 12.6519L26 14L20.9931 15.3481C18.2399 16.0894 16.0894 18.2399 15.3481 20.9931L14 26L12.6519 20.9931C11.9106 18.2399 9.76007 16.0894 7.00692 15.3481L2 14L7.00692 12.6519C9.76007 11.9106 11.9106 9.76007 12.6519 7.00692L14 2Z" fill="#EDFCE3" stroke="#6B6395" stroke-linecap="round" stroke-linejoin="round"/>
<path d="M23 20C23.394 21.4632 24.5368 22.606 26 23C24.5368 23.394 23.394 24.5368 23 26C22.606 24.5368 21.4632 23.394 20 23C21.4632 22.606 22.606 21.4632 23 20Z" fill="#EDFCE3" stroke="#6B6395" stroke-linecap="round" stroke-linejoin="round"/>
</svg>
