<svg width="130" height="130" viewBox="0 0 130 130" fill="none" xmlns="http://www.w3.org/2000/svg">
<path d="M57.5 6.48483C62.141 3.80534 67.859 3.80534 72.5 6.48483L111.06 28.7472C115.701 31.4267 118.56 36.3786 118.56 41.7376V86.2624C118.56 91.6214 115.701 96.5733 111.06 99.2528L72.5 121.515C67.859 124.195 62.141 124.195 57.5 121.515L18.9404 99.2528C14.2994 96.5733 11.4404 91.6214 11.4404 86.2624V41.7376C11.4404 36.3786 14.2994 31.4267 18.9404 28.7472L57.5 6.48483Z" fill="#CFC8F6" stroke="#6B6395" stroke-width="2" stroke-linejoin="bevel"/>
<path d="M59.5 16.3301C62.9034 14.3652 67.0966 14.3652 70.5 16.3301L103.533 35.4019C106.937 37.3669 109.033 40.9983 109.033 44.9282V83.0718C109.033 87.0017 106.937 90.6331 103.533 92.5981L70.5 111.67C67.0966 113.635 62.9034 113.635 59.5 111.67L26.4667 92.5981C23.0633 90.6331 20.9667 87.0017 20.9667 83.0718V44.9282C20.9667 40.9983 23.0633 37.3669 26.4667 35.4019L59.5 16.3301Z" fill="white" stroke="#6B6395" stroke-width="2" stroke-linejoin="bevel"/>
<path d="M61.5 31.1754C63.6658 29.925 66.3342 29.925 68.5 31.1754L91.6769 44.5566C93.8427 45.8071 95.1769 48.1179 95.1769 50.6188V77.3812C95.1769 79.8821 93.8427 82.1929 91.6769 83.4434L68.5 96.8246C66.3342 98.075 63.6658 98.075 61.5 96.8246L38.3231 83.4434C36.1573 82.1929 34.8231 79.8821 34.8231 77.3812V50.6188C34.8231 48.1179 36.1573 45.8071 38.3231 44.5566L61.5 31.1754Z" fill="#EDFCE3" stroke="#6B6395" stroke-width="2" stroke-linejoin="bevel"/>
<rect x="42" y="52" width="32" height="8" rx="4" fill="#CFC8F6" stroke="#6B6395" stroke-width="2"/>
<rect x="42" y="68" width="32" height="8" rx="4" fill="#CFC8F6" stroke="#6B6395" stroke-width="2"/>
<circle cx="84" cy="56" r="4" fill="#CFC8F6" stroke="#6B6395" stroke-width="2"/>
<circle cx="84" cy="72" r="4" fill="#CFC8F6" stroke="#6B6395" stroke-width="2"/>
<path d="M89.4643 85.0002C92.6445 90.5374 93.7865 94.6741 92.2039 96.3186C88.6263 100.036 72.4798 89.6107 56.1398 73.0324C39.7998 56.4541 29.4538 40.0009 33.0314 36.2832C34.7485 34.4989 39.3607 35.9725 45.5 39.8205" stroke="#6B6395" stroke-width="2"/>
</svg>
